<?xml version="1.0" standalone="no"?>
<!DOCTYPE svg PUBLIC "-//W3C//DTD SVG 1.1//EN" "http://www.w3.org/Graphics/SVG/1.1/DTD/svg11.dtd">
<svg width="100%" height="100%" viewBox="0 0 500 200" version="1.1" xmlns="http://www.w3.org/2000/svg" xmlns:xlink="http://www.w3.org/1999/xlink" xml:space="preserve" style="fill-rule:evenodd;clip-rule:evenodd;stroke-linejoin:round;stroke-miterlimit:1.41421;">
    <g transform="matrix(1.38085,0,0,1.38085,-98.7453,-28.453)">
        <g>
            <g>
                <g transform="matrix(0.823023,0,0,-0.823023,265.06,105.488)">
                    <path d="M0,0C0,-11.25 -14,-10.583 -14,-10.583L-28,-10.583L-28,9.75L-14,9.75C0.417,9.833 0,0 0,0M-28,40.75L-17.333,40.75C-6.25,40.166 -6.667,31.917 -6.667,31.917C-6.667,21.667 -18.917,21.5 -18.917,21.5L-28,21.5L-28,40.75ZM-2.583,17.5C-2.583,17.5 7,21.583 6.917,32.417C6.917,32.417 8.374,50.166 -15.146,52.333L-41.25,52.333L-41.25,-22.083L-11.333,-22.083C-11.333,-22.083 13.667,-22.167 13.667,-1.083C13.667,-1.083 14.25,13.25 -2.583,17.5M-70.128,66.916L39.75,66.916L39.75,-36.628L-70.128,-36.628L-70.128,66.916Z" style="fill:black;fill-rule:nonzero;"/>
                </g>
                <g transform="matrix(0.823023,0,0,-0.823023,160.776,105.488)">
                    <path d="M0,0C0,-11.25 -14,-10.583 -14,-10.583L-28,-10.583L-28,9.75L-14,9.75C0.417,9.833 0,0 0,0M-28,40.75L-17.333,40.75C-6.25,40.166 -6.667,31.917 -6.667,31.917C-6.667,21.667 -18.917,21.5 -18.917,21.5L-28,21.5L-28,40.75ZM-2.583,17.5C-2.583,17.5 7,21.583 6.917,32.417C6.917,32.417 8.374,50.166 -15.146,52.333L-41.25,52.333L-41.25,-22.083L-11.333,-22.083C-11.333,-22.083 13.667,-22.167 13.667,-1.083C13.667,-1.083 14.25,13.25 -2.583,17.5M-70.128,66.916L39.75,66.916L39.75,-36.628L-70.128,-36.628L-70.128,66.916Z" style="fill:black;fill-rule:nonzero;"/>
                </g>
                <g transform="matrix(0.823023,0,0,-0.823023,383.609,66.8073)">
                    <path d="M0,0L0,-13.75C0,-13.75 -13.417,-5.5 -28.25,-5.333C-28.25,-5.333 -55.916,-4.793 -57.166,-31.855C-57.166,-31.855 -58.166,-56.75 -28.583,-58.167C-28.583,-58.167 -16.166,-59.667 0.667,-48.917L0.667,-63.167C0.667,-63.167 -21.916,-76.583 -48.083,-66.25C-48.083,-66.25 -70.083,-58.21 -70.917,-31.855C-70.917,-31.855 -71.834,-4.75 -42.5,4.25C-42.5,4.25 -34.666,7.25 -20.583,5.917C-20.583,5.917 -12.167,5.083 0,0M-87.461,-83.627L22.417,-83.627L22.417,19.917L-87.461,19.917L-87.461,-83.627Z" style="fill:black;fill-rule:nonzero;"/>
                </g>
            </g>
        </g>
    </g>
</svg>
