<svg viewBox="0 0 500 200" xmlns="http://www.w3.org/2000/svg" fill-rule="evenodd" clip-rule="evenodd" stroke-linejoin="round" stroke-miterlimit="1.414"><path d="M267.263 117.21c0 12.785-15.91 12.027-15.91 12.027h-15.911V106.13h15.91c16.385-.095 15.91 11.08 15.91 11.08M235.443 70.9h12.122c12.596.664 12.122 10.038 12.122 10.038 0 11.65-13.922 11.839-13.922 11.839h-10.322V70.899zm28.885 26.423s10.891-4.64 10.797-16.953c0 0 1.656-20.171-25.074-22.634h-29.667v84.572h34s28.412.095 28.412-23.866c0 0 .663-16.29-18.468-21.12m-76.763-56.159h124.874v117.675H187.564V41.162zM123.262 117.21c0 12.785-15.91 12.027-15.91 12.027H91.44V106.13h15.91c16.385-.095 15.911 11.08 15.911 11.08M91.441 70.9h12.123c12.595.664 12.121 10.038 12.121 10.038 0 11.65-13.921 11.839-13.921 11.839H91.44V70.899zm28.886 26.423s10.89-4.64 10.796-16.953c0 0 1.656-20.171-25.074-22.634H76.383v84.572h34s28.411.095 28.411-23.866c0 0 .663-16.29-18.467-21.12M43.564 41.163h124.873v117.675H43.564V41.162zM430.961 63.798v15.626s-15.248-9.376-32.105-9.565c0 0-31.442-.614-32.862 30.141 0 0-1.137 28.293 32.483 29.903 0 0 14.112 1.705 33.242-10.512v16.194s-25.665 15.247-55.403 3.504c0 0-25.002-9.137-25.95-39.089 0 0-1.042-30.804 32.295-41.032 0 0 8.903-3.41 24.908-1.895 0 0 9.565.948 23.392 6.725m-99.397 95.04h124.873V41.163H331.564v117.675z" fill-rule="nonzero"/></svg>
