<svg viewBox="0 0 500 200" xmlns="http://www.w3.org/2000/svg" fill-rule="evenodd" clip-rule="evenodd" stroke-linejoin="round" stroke-miterlimit="1.414"><path d="M316.342 157.005c0-9.169-6.397-14.358-18.338-16.348-9.809-1.564-11.515-2.772-11.515-5.686 0-3.696 2.772-6.397 11.515-6.397 6.824 0 13.434 2.345 16.42 5.33h.568v-5.401c0-5.544-5.331-12.226-18.338-12.226-14.714 0-24.451 9.17-24.451 19.902 0 8.743 5.828 13.505 18.053 15.282 9.951 1.422 11.942 2.985 11.942 6.255 0 4.265-3.412 6.326-10.449 6.326-6.823 0-14.216-2.559-17.272-5.473h-.569v6.54c0 5.828 7.89 11.3 18.48 11.3 15.425 0 23.954-7.25 23.954-19.404zm4.62-37.103v34.544c0 13.434 7.037 21.324 21.537 21.324 8.316 0 12.581-3.696 12.581-9.596v-5.117h-.569c-2.274 1.421-5.757 1.99-10.306 1.99-5.757 0-9.098-2.843-9.098-10.307V130.21h11.372c5.829 0 8.53-3.839 8.53-6.824v-5.828h-19.902v-13.008h-3.34c-2.204 0-4.834 1.706-6.753 3.91-2.986 3.696-4.052 5.828-4.052 11.443zm71.79 35.682c0 5.828-2.986 8.884-9.17 8.884-6.326 0-9.95-2.7-9.95-7.107 0-4.692 3.056-7.25 13.93-7.25h5.118v5.473h.072zm14.002-.071v-13.221c0-19.83-11.515-25.802-24.309-25.802-15.14 0-20.897 7.677-20.897 14.074v4.62h.569c2.132-2.7 7.89-6.61 18.267-6.61 8.53 0 12.368 2.488 12.368 10.52v.71h-5.047c-21.11 0-28.574 7.819-28.574 18.054 0 10.52 9.383 18.196 23.03 18.196h2.843c12.794 0 21.75-8.387 21.75-20.541zm34.473 11.514v-3.056h-3.838c-6.753 0-9.738-1.777-9.738-7.606v-42.718c0-5.402-3.056-9.595-10.235-9.595h-4.052v53.664c0 11.657 6.397 17.912 18.267 17.912 6.255.07 9.596-2.417 9.596-8.6zm8.032-62.975h-4.62v60.985c0 6.752 3.198 10.235 9.809 10.093l4.62-.142v-28.005c6.255 8.387 12.652 16.917 20.044 24.522 2.488 2.417 6.184 3.91 9.382 3.91 5.829 0 8.174-2.488 9.667-7.037-3.554-1.138-5.829-2.204-11.088-7.464-5.118-5.188-9.596-11.088-14.216-16.703 5.97-7.605 19.333-22.745 23.314-26.157v-.497h-8.174c-4.62 0-7.961.568-11.373 3.696-6.61 6.255-12.083 13.647-17.627 20.897v-28.645c.07-5.544-2.844-9.453-9.738-9.453z" fill="#62c472"/><path d="M52.712 24.444S35.654 37.451 31.815 49.819c-3.838 12.297-1.421 20.47 3.696 26.157 5.19 5.757 11.657 7.25 16.633 6.539 5.615-.782 11.941-5.473 14.144-12.225 2.204-6.824 1.564-14.643-1.777-20.258-3.34-5.615-5.615-10.733-7.676-14.642-2.132-3.98-4.123-10.946-4.123-10.946zM2.958 79.885s-.924 17.343 3.838 27.72c4.762 10.378 11.23 14.003 18.054 14.216 6.965.214 12.225-3.127 15.14-6.823 3.269-4.265 4.69-11.444 2.06-17.201-2.63-5.829-7.818-10.306-13.362-11.586-5.544-1.28-12.865-1.137-16.561-2.203-3.767-1.138-9.17-4.123-9.17-4.123zm100.789-12.794s.924 16.775-3.767 26.725c-4.692 10.023-11.018 13.505-17.77 13.719-6.824.213-12.012-2.986-14.855-6.61-3.199-4.123-4.62-11.018-1.99-16.633 2.63-5.615 7.676-9.88 13.149-11.16C83.987 71.854 91.166 72.067 94.79 71c3.625-.995 8.956-3.909 8.956-3.909z" fill="#71dd78"/><path d="M66.502 62.044c0 43.785-69.657 7.535-14.358-35.823 3.767 11.088 14.358 24.735 14.358 35.823zm2.132 0c0-12.51-11.373-25.73-14.926-37.884l-1.635-.569c-62.336 47.338 16.561 85.507 16.561 38.453z" fill="#2d9551"/><path d="M49.372 44.488s-3.554 9.17-3.554 16.064 2.772 13.931 2.772 13.931-.71-9.24-.924-15.14c-.213-5.899 1.706-14.855 1.706-14.855z" fill="#349b6b"/><path d="M40.985 98.081C49.159 126.94.896 134.473 3.242 80.951c6.54 3.057 14.855 4.336 21.82 5.97 7.82 1.778 14.074 4.55 15.923 11.16zm2.06-.568C38.71 82.23 13.549 85.429 2.035 78.96l-.143.924c-1.919 62.904 49.4 46.699 41.155 17.628z" fill="#2d9551"/><path d="M12.624 94.243s5.118 8.743 10.804 13.007c5.473 4.123 12.368 5.9 12.368 5.9s-7.392-4.762-12.155-8.174c-4.904-3.483-11.017-10.733-11.017-10.733z" fill="#349b6b"/><path d="M64.37 84.079c-8.104 28.076 42.362 43.926 40.443-16.988l-1.564-.924c-11.16 6.184-34.615 3.127-38.88 17.912zm2.06.568c2.915-10.235 18.623-11.301 27.366-13.15 3.198-.71 6.326-1.492 8.956-2.7.71 52.456-44.353 43.713-36.321 15.85z" fill="#2d9551"/><path d="M72.259 98.863s6.468-2.346 12.154-6.61c6.54-4.905 10.378-12.937 10.378-12.937s-5.615 6.54-9.951 10.307c-4.55 4.122-12.581 9.24-12.581 9.24z" fill="#349b6b"/><path d="M66.146 99.787s-5.686 1.208-7.108 4.265c0 4.762.498 10.875 0 10.662 1.92-8.032 9.951-12.084 9.951-12.084l-2.843-2.843zm-25.588 14.927s5.686 1.208 7.108 4.264c0 4.762-.498 10.875 0 10.662-1.92-8.032-9.951-12.083-9.951-12.083l2.843-2.843z" fill="#156c48"/><path d="M87.825 147.623c0 9.24-5.117 16.135-12.225 16.135-8.53 0-14.216-5.473-14.216-18.623 0-8.956 5.473-16.135 12.723-16.135 8.743-.07 13.718 4.691 13.718 18.623zm14.856-2.488c0-16.917-11.23-28.858-25.802-28.858-7.747 0-12.652 4.62-15.566 8.743V94.1c0-6.752-3.838-9.95-9.382-9.95h-4.976v62.904c0 17.272 12.368 29.285 27.081 29.285 17.556.07 28.645-13.86 28.645-31.204zm42.433-8.245c0 4.051-3.127 5.544-16.632 5.544h-6.397l.071-1.919c.284-6.61 5.118-12.225 12.012-12.225 6.682-.072 10.946 2.772 10.946 8.6zm13.434 1.635c0-13.718-11.088-22.248-23.03-22.248-16.418 0-28.146 12.084-28.146 31.275 0 17.556 13.931 28.858 28.289 28.858 15.78 0 20.755-5.687 20.755-13.008v-4.478h-.569c-4.62 4.265-11.657 5.402-17.627 5.402-8.459 0-14.998-4.549-16.064-11.799h9.382c19.05 0 27.01-3.412 27.01-14.002zm37.316 17.059c0 5.828-2.985 8.884-9.169 8.884-6.326 0-9.88-2.7-9.88-7.107 0-4.692 3.057-7.25 13.932-7.25h5.117v5.473zm14.003-.071v-13.221c0-19.83-11.515-25.802-24.309-25.802-15.14 0-20.897 7.677-20.897 14.074v4.62h.569c2.132-2.7 7.89-6.61 18.196-6.61 8.529 0 12.367 2.488 12.367 10.52v.71h-4.975c-21.11 0-28.574 7.819-28.574 18.054 0 10.52 9.383 18.196 23.03 18.196h2.914c12.723 0 21.679-8.387 21.679-20.541zm56.01 19.617v-33.478c0-16.348-11.23-25.375-24.736-25.375-17.911 0-25.943 12.439-25.943 24.593v24.878c0 5.33 3.909 9.382 10.022 9.382h4.264v-33.265c0-8.174 4.265-12.936 10.449-12.936 7.392 0 11.657 4.265 11.657 14.003v22.816c0 5.33 4.051 9.382 10.448 9.382h3.839z" fill="#24723c"/></svg>
