<svg viewBox="0 0 500 200" xmlns="http://www.w3.org/2000/svg" fill-rule="evenodd" clip-rule="evenodd" stroke-linejoin="round" stroke-miterlimit="1.414"><g fill-rule="nonzero"><path d="M240.604 30.985c-34.667 0-62.806 28.154-62.806 62.841 0 34.725 28.145 62.832 62.806 62.832 34.71 0 62.812-28.107 62.812-62.835 0-34.687-28.105-62.84-62.812-62.84v.002zm0 114.841c-28.704 0-51.971-23.281-51.971-52 0-28.725 23.264-52 51.971-52 28.707 0 51.985 23.275 51.985 52-.005 28.716-23.275 52-51.985 52z" fill="#5dc2f7"/><path d="M294.752 0a109.354 109.354 0 0 1 39.672 39.646l-76.942 44.43c-1.698-2.957-4.174-5.392-7.13-7.14L294.749 0h.003z" fill="#ec5975"/><path d="M307.98 161.275c-17.222 17.23-41.06 27.893-67.376 27.893-26.313 0-50.104-10.667-67.371-27.896l-7.658 7.655C184.801 188.116 211.332 200 240.604 200c29.319 0 55.85-11.884 75.029-31.073l-7.652-7.652z" fill="#eeaa1d"/></g></svg>
