<?xml version="1.0" standalone="no"?>
<!DOCTYPE svg PUBLIC "-//W3C//DTD SVG 1.1//EN" "http://www.w3.org/Graphics/SVG/1.1/DTD/svg11.dtd">
<svg width="100%" height="100%" viewBox="0 0 500 200" version="1.1" xmlns="http://www.w3.org/2000/svg" xmlns:xlink="http://www.w3.org/1999/xlink" xml:space="preserve" style="fill-rule:evenodd;clip-rule:evenodd;stroke-linejoin:round;stroke-miterlimit:1.41421;">
    <g transform="matrix(2.89855,0,0,2.89855,165.575,0)">
        <g>
            <g>
                <path d="M25.885,10.69C13.925,10.69 4.217,20.403 4.217,32.37C4.217,44.35 13.927,54.047 25.885,54.047C37.86,54.047 47.555,44.35 47.555,32.369C47.555,20.402 37.859,10.689 25.885,10.689L25.885,10.69ZM25.885,50.31C15.982,50.31 7.955,42.278 7.955,32.37C7.955,22.46 15.981,14.43 25.885,14.43C35.789,14.43 43.82,22.46 43.82,32.37C43.818,42.277 35.79,50.31 25.885,50.31L25.885,50.31Z" style="fill:rgb(93,194,247);fill-rule:nonzero;"/>
                <path d="M44.566,0C50.239,3.288 54.966,8.018 58.253,13.678L31.708,29.006C31.122,27.986 30.268,27.146 29.248,26.543L44.565,0L44.566,0Z" style="fill:rgb(236,89,117);fill-rule:nonzero;"/>
                <path d="M49.13,55.64C43.188,61.584 34.964,65.263 25.885,65.263C16.807,65.263 8.599,61.583 2.642,55.639L0,58.28C6.633,64.9 15.786,69 25.885,69C36,69 45.153,64.9 51.77,58.28L49.13,55.64Z" style="fill:rgb(238,170,29);fill-rule:nonzero;"/>
            </g>
        </g>
    </g>
</svg>
