<svg viewBox="0 0 500 200" xmlns="http://www.w3.org/2000/svg" fill-rule="evenodd" clip-rule="evenodd" stroke-linejoin="round" stroke-miterlimit="1.414"><path d="M101.656 54.81c-28.225 0-51.746 11.975-51.746 48.103 0 28.622 15.816 46.644 52.474 46.644 43.151 0 45.917-28.423 45.917-28.423h-20.909s-4.482 15.305-26.282 15.305c-17.756 0-30.526-11.995-30.526-28.807h79.903V97.083c0-16.633-10.558-42.272-48.831-42.272zm-.73 13.484c16.904 0 28.426 10.355 28.426 25.874H71.045c0-16.476 15.04-25.874 29.882-25.874z" fill="#e53238" fill-rule="nonzero"/><path d="M150.473 19.828v111.587c0 6.333-.453 15.227-.453 15.227h19.942s.716-6.387.716-12.225c0 0 9.852 15.414 36.642 15.414 28.211 0 47.374-19.586 47.374-47.646 0-26.105-17.602-47.1-47.329-47.1-27.836 0-36.486 15.032-36.486 15.032v-50.29h-20.406zm51.745 49.058c19.158 0 31.34 14.219 31.34 33.299 0 20.46-14.07 33.844-31.202 33.844-20.447 0-31.477-15.964-31.477-33.663 0-16.49 9.897-33.48 31.34-33.48z" fill="#0064d2" fill-rule="nonzero"/><path d="M304.253 54.81c-42.463 0-45.186 23.252-45.186 26.968h21.135s1.108-13.575 22.594-13.575c13.96 0 24.78 6.39 24.78 18.677v4.372h-24.78c-32.897 0-50.288 9.623-50.288 29.153 0 19.219 16.068 29.677 37.784 29.677 29.595 0 39.128-16.353 39.128-16.353 0 6.503.502 12.913.502 12.913h18.789s-.73-7.945-.73-13.028V89.68c0-28.807-23.234-34.87-43.728-34.87zm23.322 49.561v5.83c0 7.605-4.692 26.511-32.318 26.511-15.128 0-21.614-7.55-21.614-16.307 0-15.931 21.843-16.034 53.932-16.034z" fill="#f5af02" fill-rule="nonzero"/><path d="M336.601 58.459h23.777l34.125 68.366L428.55 58.46h21.539l-62.014 121.713H365.48l17.895-33.929-46.775-87.784z" fill="#86b817" fill-rule="nonzero"/></svg>
