<?xml version="1.0" standalone="no"?>
<!DOCTYPE svg PUBLIC "-//W3C//DTD SVG 1.1//EN" "http://www.w3.org/Graphics/SVG/1.1/DTD/svg11.dtd">
<svg width="100%" height="100%" viewBox="0 0 500 200" version="1.1" xmlns="http://www.w3.org/2000/svg" xmlns:xlink="http://www.w3.org/1999/xlink" xml:space="preserve" style="fill-rule:evenodd;clip-rule:evenodd;stroke-linejoin:round;stroke-miterlimit:1.41421;">
    <g transform="matrix(1,0,0,1,2.66266,-1.73107)">
        <g>
            <g>
                <g id="e" transform="matrix(1.33482,0,0,1.33482,47.1138,21.4252)">
                    <path d="M38.866,26.308C17.721,26.308 0.1,35.279 0.1,62.345C0.1,83.787 11.949,97.289 39.412,97.289C71.739,97.289 73.811,75.995 73.811,75.995L58.147,75.995C58.147,75.995 54.789,87.461 38.457,87.461C25.155,87.461 15.588,78.475 15.588,65.88L75.449,65.88L75.449,57.977C75.449,45.516 67.539,26.308 38.866,26.308L38.866,26.308ZM38.32,36.409C50.983,36.409 59.615,44.167 59.615,55.793L15.934,55.793C15.934,43.45 27.201,36.409 38.32,36.409L38.32,36.409Z" style="fill:rgb(229,50,56);fill-rule:nonzero;"/>
                </g>
                <g id="b" transform="matrix(1.33482,0,0,1.33482,47.1138,21.4252)">
                    <path d="M75.438,0.1L75.438,83.697C75.438,88.442 75.099,95.105 75.099,95.105L90.039,95.105C90.039,95.105 90.575,90.32 90.575,85.946C90.575,85.946 97.956,97.494 118.026,97.494C139.161,97.494 153.517,82.821 153.517,61.799C153.517,42.242 140.33,26.513 118.06,26.513C97.206,26.513 90.726,37.775 90.726,37.775L90.726,0.1L75.438,0.1ZM114.204,36.853C128.556,36.853 137.682,47.505 137.682,61.799C137.682,77.127 127.142,87.154 114.307,87.154C98.989,87.154 90.726,75.194 90.726,61.935C90.726,49.581 98.14,36.853 114.204,36.853Z" style="fill:rgb(0,100,210);fill-rule:nonzero;"/>
                </g>
                <g id="a" transform="matrix(1.33482,0,0,1.33482,47.1138,21.4252)">
                    <path d="M190.645,26.308C158.833,26.308 156.793,43.727 156.793,46.511L172.627,46.511C172.627,46.511 173.457,36.341 189.553,36.341C200.012,36.341 208.117,41.129 208.117,50.333L208.117,53.609L189.553,53.609C164.908,53.609 151.879,60.818 151.879,75.449C151.879,89.847 163.917,97.682 180.186,97.682C202.357,97.682 209.499,85.431 209.499,85.431C209.499,90.303 209.875,95.105 209.875,95.105L223.951,95.105C223.951,95.105 223.405,89.153 223.405,85.345L223.405,52.431C223.405,30.85 205.998,26.308 190.645,26.308L190.645,26.308ZM208.117,63.437L208.117,67.805C208.117,73.502 204.602,87.666 183.905,87.666C172.572,87.666 167.713,82.01 167.713,75.449C167.713,63.514 184.077,63.437 208.117,63.437L208.117,63.437Z" style="fill:rgb(245,175,2);fill-rule:nonzero;"/>
                </g>
                <g id="y" transform="matrix(1.33482,0,0,1.33482,47.1138,21.4252)">
                    <path d="M214.879,29.041L232.692,29.041L258.257,80.259L283.764,29.041L299.9,29.041L253.441,120.224L236.515,120.224L249.921,94.806L214.879,29.041Z" style="fill:rgb(134,184,23);fill-rule:nonzero;"/>
                </g>
            </g>
        </g>
    </g>
</svg>
