<?xml version="1.0" standalone="no"?>
<!DOCTYPE svg PUBLIC "-//W3C//DTD SVG 1.1//EN" "http://www.w3.org/Graphics/SVG/1.1/DTD/svg11.dtd">
<svg width="100%" height="100%" viewBox="0 0 500 200" version="1.1" xmlns="http://www.w3.org/2000/svg" xmlns:xlink="http://www.w3.org/1999/xlink" xml:space="preserve" style="fill-rule:evenodd;clip-rule:evenodd;stroke-linejoin:round;stroke-miterlimit:1.41421;">
    <g transform="matrix(0.989299,0,0,0.989299,134.859,-77.9929)">
        <g>
            <g>
                <g transform="matrix(0.762881,0,0,0.762881,0.924764,66.6305)">
                    <path d="M294,206L282,194L282,188C282,174.3 271.4,163.1 258,162.1L258,154L264,154C278.4,154 290,142.4 290,128L290,102C290,99.8 288.2,98 286,98C283.8,98 282,99.8 282,102C282,99.8 280.2,98 278,98C275.8,98 274,99.8 274,102C274,99.8 272.2,98 270,98C267.8,98 266,99.8 266,102L266,124C266,127.3 263.3,130 260,130L258,130L258,102L208,102C202.5,102 198,97.5 198,92C198,86.5 202.5,82 208,82L258,82L258,78C262.4,78 266,74.4 266,70C266,65.6 262.4,62 258,62L258,48C258,34 250.1,26 236,26L212,26C197.9,26 190,34 190,48L190,62C185.6,62 182,65.6 182,70C182,74.4 185.6,78 190,78L190,130L188,130C184.7,130 182,127.3 182,124L182,102C182,99.8 180.2,98 178,98C175.8,98 174,99.8 174,102C174,99.8 172.2,98 170,98C167.8,98 166,99.8 166,102C166,99.8 164.2,98 162,98C159.8,98 158,99.8 158,102L158,128C158,142.4 169.6,154 184,154L190,154L190,172C190,175.3 187.3,178 184,178L170,178L170,214L182,202L188,202C198.8,202 208.1,195.4 212,186L252,186C255.3,186 258,188.7 258,192L258,206L294,206ZM26,164L8,154L26,144L26,164ZM26,144L8,134L26,124L26,144ZM26,124L8,114L26,104L26,124ZM26,104L8,94L26,84L26,104Z" style="fill:rgb(226,203,181);fill-rule:nonzero;"/>
                </g>
                <g transform="matrix(0.762881,0,0,0.762881,0.924764,66.6305)">
                    <circle cx="212" cy="66" r="8" style="fill:white;"/>
                </g>
                <g transform="matrix(0.762881,0,0,0.762881,0.924764,66.6305)">
                    <circle cx="236" cy="66" r="8" style="fill:white;"/>
                </g>
                <g transform="matrix(0.762881,0,0,0.762881,0.924764,66.6305)">
                    <circle cx="212" cy="66" r="4" style="fill:rgb(159,166,40);"/>
                </g>
                <g transform="matrix(0.762881,0,0,0.762881,0.924764,66.6305)">
                    <circle cx="236" cy="66" r="4" style="fill:rgb(159,166,40);"/>
                </g>
                <g transform="matrix(0.762881,0,0,0.762881,0.924764,66.6305)">
                    <path d="M44,102C38.5,102 34,97.5 34,92C34,86.5 38.5,82 44,82L94,82L94,48C94,34 86.1,26 72,26L48,26C33.9,26 26,34 26,48L26,172C26,175.3 23.3,178 20,178L6,178L6,214L18,202L24,202C34.8,202 44.1,195.4 48,186L88,186C91.3,186 94,188.7 94,192L94,206L130,206L118,194L118,188C118,174.3 107.4,163.1 94,162.1L94,158L142,158L132,150L144,146L132,142L142,134L94,134L94,126L142,126L132,118L144,114L132,110L142,102L44,102Z" style="fill:rgb(159,166,40);fill-rule:nonzero;"/>
                </g>
                <g transform="matrix(0.762881,0,0,0.762881,0.924764,66.6305)">
                    <circle cx="48" cy="66" r="8" style="fill:white;"/>
                </g>
                <g transform="matrix(0.762881,0,0,0.762881,0.924764,66.6305)">
                    <circle cx="72" cy="66" r="8" style="fill:white;"/>
                </g>
                <g transform="matrix(0.762881,0,0,0.762881,0.924764,66.6305)">
                    <path d="M236,26L212,26C197.9,26 190,34 190,48L190,50L194,46L200,52L206,46L212,52L218,46L224,52L230,46L236,52L242,46L248,52L254,46L258,50L258,48C258,34 250.1,26 236,26Z" style="fill:rgb(191,108,53);fill-rule:nonzero;"/>
                </g>
                <g transform="matrix(0.762881,0,0,0.762881,0.924764,66.6305)">
                    <circle cx="48" cy="66" r="4" style="fill:rgb(191,108,53);"/>
                </g>
                <g transform="matrix(0.762881,0,0,0.762881,0.924764,66.6305)">
                    <circle cx="72" cy="66" r="4" style="fill:rgb(191,108,53);"/>
                </g>
                <g transform="matrix(0.762881,0,0,0.762881,0.924764,66.6305)">
                    <path d="M212,76C206.5,76 202,71.5 202,66C202,60.5 206.5,56 212,56C217.5,56 222,60.5 222,66C222,71.5 217.5,76 212,76ZM212,60C208.7,60 206,62.7 206,66C206,69.3 208.7,72 212,72C215.3,72 218,69.3 218,66C218,62.7 215.3,60 212,60ZM236,76C230.5,76 226,71.5 226,66C226,60.5 230.5,56 236,56C241.5,56 246,60.5 246,66C246,71.5 241.5,76 236,76ZM236,60C232.7,60 230,62.7 230,66C230,69.3 232.7,72 236,72C239.3,72 242,69.3 242,66C242,62.7 239.3,60 236,60ZM298.8,208L284,193.2L284,188C284,174.1 273.6,162.2 260,160.3L260,156L264,156C279.4,156 292,143.4 292,128L292,102C292,98.7 289.3,96 286,96C284.5,96 283.1,96.6 282,97.5C280.9,96.5 279.5,96 278,96C276.5,96 275.1,96.6 274,97.5C272.9,96.5 271.5,96 270,96C266.7,96 264,98.7 264,102L264,124C264,126.2 262.2,128 260,128L260,100L250,100L250,99C250,97.3 248.7,96 247,96C245.3,96 244,97.3 244,99L244,100L238,100L238,99C238,97.3 236.7,96 235,96C233.3,96 232,97.3 232,99L232,100L226,100L226,99C226,97.3 224.7,96 223,96C221.3,96 220,97.3 220,99L220,100L214,100L214,99C214,97.3 212.7,96 211,96C209.3,96 208,97.3 208,99L208,100C203.6,100 200,96.4 200,92C200,87.6 203.6,84 208,84L214,84L214,85C214,86.7 215.3,88 217,88C218.7,88 220,86.7 220,85L220,84L226,84L226,85C226,86.7 227.3,88 229,88C230.7,88 232,86.7 232,85L232,84L238,84L238,85C238,86.7 239.3,88 241,88C242.7,88 244,86.7 244,85L244,84L250,84L250,85C250,86.7 251.3,88 253,88C254.7,88 256,86.7 256,85L256,84L260,84L260,79.8C264.6,78.9 268,74.8 268,70C268,65.2 264.6,61.1 260,60.2L260,48C260,32.7 251.3,24 236,24L212,24C196.7,24 188,32.7 188,48L188,60.2C183.4,61.1 180,65.2 180,70C180,74.8 183.4,78.9 188,79.8L188,128C185.8,128 184,126.2 184,124L184,102C184,98.7 181.3,96 178,96C176.5,96 175.1,96.6 174,97.5C172.9,96.5 171.5,96 170,96C168.5,96 167.1,96.6 166,97.5C164.9,96.5 163.5,96 162,96C158.7,96 156,98.7 156,102L156,128C156,143.4 168.6,156 184,156L188,156L188,172C188,174.2 186.2,176 184,176L168,176L168,218.8L182.8,204L188,204C198.9,204 208.7,197.8 213.3,188L252,188C254.2,188 256,189.8 256,192L256,208L298.8,208ZM260,132C264.4,132 268,128.4 268,124L268,102C268,100.9 268.9,100 270,100C271.1,100 272,100.9 272,102C272,103.1 272.9,104 274,104C275.1,104 276,103.1 276,102C276,100.9 276.9,100 278,100C279.1,100 280,100.9 280,102C280,103.1 280.9,104 282,104C283.1,104 284,103.1 284,102C284,100.9 284.9,100 286,100C287.1,100 288,100.9 288,102L288,128C288,141.2 277.2,152 264,152L260,152L260,132ZM260,64.3C262.3,65.1 264,67.3 264,70C264,72.7 262.3,74.8 260,75.7L260,64.3ZM184,70C184,67.4 185.7,65.2 188,64.3L188,75.6C185.7,74.8 184,72.6 184,70ZM252,184L210.7,184L210.2,185.2C206.5,194.2 197.8,200 188,200L181.2,200L172,209.2L172,180L184,180C188.4,180 192,176.4 192,172L192,152L184,152C170.8,152 160,141.2 160,128L160,102C160,100.9 160.9,100 162,100C163.1,100 164,100.9 164,102C164,103.1 164.9,104 166,104C167.1,104 168,103.1 168,102C168,100.9 168.9,100 170,100C171.1,100 172,100.9 172,102C172,103.1 172.9,104 174,104C175.1,104 176,103.1 176,102C176,100.9 176.9,100 178,100C179.1,100 180,100.9 180,102L180,124C180,128.4 183.6,132 188,132L192,132L192,48C192,35.1 199.1,28 212,28L236,28C248.9,28 256,35.1 256,48L256,80L208,80C201.4,80 196,85.4 196,92C196,98.6 201.4,104 208,104L256,104L256,163.9L257.8,164C270.3,165 280,175.5 280,188L280,194.8L289.2,204L260,204L260,192C260,187.6 256.4,184 252,184ZM48,76C42.5,76 38,71.5 38,66C38,60.5 42.5,56 48,56C53.5,56 58,60.5 58,66C58,71.5 53.5,76 48,76ZM48,60C44.7,60 42,62.7 42,66C42,69.3 44.7,72 48,72C51.3,72 54,69.3 54,66C54,62.7 51.3,60 48,60ZM72,76C66.5,76 62,71.5 62,66C62,60.5 66.5,56 72,56C77.5,56 82,60.5 82,66C82,71.5 77.5,76 72,76ZM72,60C68.7,60 66,62.7 66,66C66,69.3 68.7,72 72,72C75.3,72 78,69.3 78,66C78,62.7 75.3,60 72,60ZM136.1,141.3L147.7,132L96,132L96,128L147.7,128L136.1,118.7L150.3,114L136.1,109.3L147.7,100L94,100L90,92L86,100L82,100L78,92L74,100L70,100L66,92L62,100L58,100L54,92L50,100L46,100L42,92L38.9,98.2C37.1,96.7 36,94.5 36,92C36,87.6 39.6,84 44,84L48,92L52,84L56,84L60,92L64,84L68,84L72,92L76,84L80,84L84,92L88,84L96,84L96,48C96,41.3 94.3,35.8 91.1,31.8L96.4,26.5C98,27.5 99.9,28 102.1,28C103.2,28 104.1,27.1 104.1,26C104.1,24.9 103.2,24 102.1,24C98.3,24 96.1,21.8 96.1,18C96.1,16.9 95.2,16 94.1,16C93,16 92.1,16.9 92.1,18C92.1,20.2 92.6,22.1 93.6,23.7L88.3,29C84.3,25.8 78.8,24.1 72.1,24.1L48,24.1C41.3,24.1 35.8,25.8 31.8,29L26.5,23.7C27.5,22.1 28,20.2 28,18C28,16.9 27.1,16 26,16C24.9,16 24,16.9 24,18C24,21.8 21.8,24 18,24C16.9,24 16,24.9 16,26C16,27.1 16.9,28 18,28C20.2,28 22.1,27.5 23.7,26.5L29,31.8C25.8,35.8 24.1,41.3 24.1,48L24.1,82.8L3.9,94L21.9,104L3.9,114L21.9,124L3.9,134L21.9,144L3.9,154L24,165.2L24,172C24,174.2 22.2,176 20,176L4,176L4,218.8L18.8,204L24,204C34.9,204 44.7,197.8 49.3,188L88,188C90.2,188 92,189.8 92,192L92,208L134.8,208L120,193.2L120,188C120,174.1 109.6,162.2 96,160.3L96,160L147.7,160L136.1,150.7L150.3,146L136.1,141.3ZM96,104L136.3,104L127.9,110.7L137.7,114L127.9,117.3L136.3,124L96,124L96,104ZM24,87.4L24,100.6L12.1,94L24,87.4ZM24,107.4L24,120.6L12.1,114L24,107.4ZM24,127.4L24,140.6L12.1,134L24,127.4ZM12.1,154L24,147.4L24,160.6L12.1,154ZM28,48C28,35.1 35.1,28 48,28L72,28C84.9,28 92,35.1 92,48L92,80L44,80C37.4,80 32,85.4 32,92C32,98.6 37.4,104 44,104L92,104L92,136L136.3,136L127.9,142.7L137.7,146L127.9,149.3L136.3,156L92,156L92,163.9L93.8,164C106.3,165 116,175.5 116,188L116,194.8L125.2,204L96,204L96,192C96,187.6 92.4,184 88,184L46.7,184L46.2,185.2C42.5,194.2 33.8,200 24,200L17.2,200L8,209.2L8,180L20,180C24.4,180 28,176.4 28,172L28,48ZM54,232L62,232L62,280L54,280L54,232ZM84,280L84,273L72,273L72,232L64,232L64,280L84,280ZM38,280C45.7,280 52,273.7 52,266L52,232L44,232L44,267C44,270.3 41.3,273 38,273L36,273L36,232L28,232L28,280L38,280ZM150,232C142.3,232 136,238.3 136,246L136,280L144,280L144,263L152,263L152,280L160,280L160,232L150,232ZM144,256L144,245C144,241.7 146.7,239 150,239L152,239L152,256L144,256ZM186,246C186,238.3 179.7,232 172,232L162,232L162,280L170,280L170,263L172,263C175.3,263 178,265.7 178,269L178,280L186,280L186,270C186,265.5 183.8,261.8 180.5,259.5C183.9,257.2 186,253.5 186,249L186,246ZM178,250C178,253.3 175.3,256 172,256L170,256L170,239L172,239C175.3,239 178,241.7 178,245L178,250ZM234,232C226.3,232 220,238.3 220,246L220,280L228,280L228,264L236,264L236,280L244,280L244,232L234,232ZM228,257L228,245C228,241.7 230.7,239 234,239L236,239L236,257L228,257ZM208,232L188,232L188,239L194,239L194,280L202,280L202,239L208,239L208,232ZM210,232L218,232L218,280L210,280L210,232ZM118,245C118,241.7 120.7,239 124,239L126,239L126,280L134,280L134,232L124,232C120.1,232 116.5,234.1 114,237.2C111.5,234.1 107.9,232 104,232L94,232L94,280L102,280L102,239L104,239C107.3,239 110,241.7 110,245L110,280L118,280L118,245ZM246,232L246,280L254,280L254,240.7C258.1,242.4 262,247.2 262,252L262,280L270,280L270,232L262,232L262,237.6C259,234.1 254.8,232 250,232L246,232ZM4,232L4,266C4,273.7 10.3,280 18,280L26,280L26,273L18,273C14.7,273 12,270.3 12,267L12,255L24,255L24,248L12,248L12,239L26,239L26,232L4,232ZM296,248L296,244C296,235 291.7,231 284,231C276.3,231 272,236.3 272,244C272,259 288,259.1 288,268L288,269C288,272 287,274 284,274C281,274 280,272 280,269L280,264L272,264L272,268C272,277.1 276.3,281 284,281C291.7,281 296,275.7 296,268C296,253.1 280,253 280,244L280,243C280,240 281,238 284,238C287,238 288,240 288,243L288,248L296,248Z" style="fill:rgb(102,63,76);fill-rule:nonzero;"/>
                </g>
            </g>
        </g>
    </g>
</svg>
