<svg viewBox="0 0 500 200" xmlns="http://www.w3.org/2000/svg" fill-rule="evenodd" clip-rule="evenodd" stroke-linejoin="round" stroke-miterlimit="1.414"><g fill="#1c90f3"><path d="M221.416 64.074l.172.003.17.004.172.005.17.006.172.009.17.01.17.01.17.014.17.013.17.016.169.017.168.019.17.02.168.02.167.023.168.024.168.025.167.027.167.028.167.03.166.03.166.032.165.033.166.035.164.036.166.037.163.038.165.04.163.04.164.043.163.043.163.045.162.045.162.047.162.048.16.049.162.05.16.051.161.053.16.054.16.055.159.056.16.056.158.059.158.058.158.06.158.062.157.062.157.063.157.065.156.065.156.066.155.067.156.068.155.07.154.07.155.07.154.072.153.073.154.074.153.075.153.076.152.076.152.078.151.078.152.08.151.08.151.08.15.082.15.083.15.083.15.085.15.084.148.086.152.09.294.173.295.179.294.18.294.186.292.188.29.19.29.193.29.196.286.199.287.2.286.205.284.206.283.21.283.21.282.214.28.216.28.218.279.22.277.223.277.225.277.227.275.228.273.23.274.233.272.235.272.236.27.238.27.24.27.24.267.243.268.245.266.246.266.247.265.249.264.25.264.252.262.252.262.254.261.255.26.256.26.257.259.259.258.259.257.26.256.261.256.262.255.262.254.264.254.264.253.264.252.266.251.266.251.266.25.267.249.266.25.269.493.535.492.536.49.537.486.537.483.537.48.535.479.535.475.533.472.53.935 1.055.925 1.042.457.515.455.51.452.507.45.503.167.202.15.215.132.226.114.235.094.245.074.25.054.257.033.26.012.262-.01.26-.03.261-.05.257-.071.252-.092.245-.111.238-.13.227-.147.216-.165.204-.18.19-.195.174-.209.16-.22.14-.231.123-.24.104-.248.085-.254.063-.259.044-.26.023-.262.001-.261-.02-.26-.04-.253-.062-.25-.08-.24-.102-.233-.12-.222-.14-.21-.156-.197-.172-.183-.188-.454-.508-.459-.514-.46-.516-.461-.52-.926-1.043-.933-1.05-.467-.527-.47-.526-.47-.527-.472-.526-.473-.525-.474-.524-.476-.522-.477-.52-.48-.518-.238-.257-.24-.257-.24-.256-.24-.256-.24-.254-.242-.254-.241-.252-.242-.251-.241-.25-.242-.25-.243-.248-.242-.247-.243-.245-.243-.245-.243-.243-.244-.24-.243-.24-.244-.239-.243-.236-.245-.235-.244-.234-.245-.231-.244-.23-.246-.228-.244-.225-.245-.225-.246-.222-.245-.22-.245-.218-.246-.216-.246-.213-.246-.212-.246-.209-.245-.206-.246-.205-.246-.202-.246-.2-.245-.197-.246-.194-.246-.192-.246-.189-.246-.187-.245-.183-.246-.18-.245-.179-.246-.175-.245-.173-.245-.169-.246-.166-.244-.164-.245-.16-.244-.156-.244-.154-.244-.151-.244-.147-.246-.146-.118-.07-.122-.07-.121-.069-.122-.068-.12-.067-.121-.067-.122-.065-.12-.065-.121-.064-.121-.063-.12-.063-.121-.061-.12-.06-.121-.06-.12-.06-.12-.057-.12-.057-.12-.056-.12-.055-.12-.055-.12-.053-.119-.052-.12-.052-.118-.05-.12-.05-.118-.049-.12-.048-.118-.047-.119-.046-.118-.045-.118-.044-.119-.043-.117-.042-.119-.042-.117-.04-.118-.04-.118-.038-.117-.038-.117-.036-.117-.036-.118-.035-.116-.033-.117-.033-.116-.032-.117-.03-.116-.03-.117-.03-.116-.028-.116-.027-.115-.026-.116-.025-.116-.024-.116-.024-.115-.022-.116-.021-.115-.02-.115-.02-.114-.018-.115-.018-.115-.016-.115-.015-.114-.015-.115-.013-.115-.013-.114-.01-.114-.012-.114-.009-.115-.008-.114-.008-.114-.007-.114-.006-.114-.003-.114-.004-.114-.003-.114-.001h-.36l-.123.002-.123.004-.122.003-.122.004-.122.005-.122.006-.122.006-.12.007-.122.009-.12.008-.121.01-.12.01-.121.012-.12.011-.12.013-.119.013-.119.014-.119.015-.119.016-.118.016-.119.017-.117.017-.118.018-.118.02-.117.02-.117.02-.117.021-.116.022-.117.022-.115.024-.116.024-.115.024-.115.026-.115.027-.115.026-.114.027-.115.03-.114.028-.113.029-.113.03-.113.032-.113.03-.112.033-.112.033-.112.034-.112.034-.11.035-.112.035-.11.037-.11.037-.11.038-.11.038-.11.039-.109.04-.109.04-.108.04-.108.042-.108.042-.108.042-.107.044-.107.044-.106.045-.107.045-.106.046-.105.047-.106.047-.104.048-.105.048-.104.049-.104.05-.103.05-.104.05-.103.052-.102.052-.102.053-.102.053-.101.054-.102.055-.1.055-.1.055-.1.057-.1.056-.1.058-.098.058-.099.059-.098.059-.097.06-.098.06-.097.06-.096.062-.096.062-.096.063-.096.063-.094.064-.095.064-.094.065-.094.065-.093.066-.093.066-.093.067-.092.068-.092.068-.09.07-.092.068-.09.07-.09.07-.09.07-.089.072-.088.072-.089.072-.087.074-.087.072-.088.074-.086.075-.087.075-.085.075-.085.076-.084.077-.084.076-.084.078-.083.078-.084.078-.082.08-.082.078-.08.08-.081.081-.081.08-.08.082-.08.082-.078.082-.079.083-.078.083-.077.084-.078.084-.076.085-.076.084-.075.086-.075.086-.075.086-.073.087-.074.088-.072.087-.073.089-.072.088-.071.09-.071.089-.07.09-.07.09-.07.09-.068.092-.068.092-.068.092-.067.092-.066.093-.066.094-.065.093-.065.094-.065.095-.064.095-.063.095-.062.096-.063.095-.06.097-.062.097-.06.097-.06.098-.06.098-.058.099-.058.099-.057.098-.057.1-.056.1-.056.1-.055.1-.055.102-.054.101-.053.102-.053.102-.052.102-.051.103-.05.104-.05.103-.051.104-.049.104-.049.105-.047.104-.047.106-.047.105-.046.105-.045.107-.045.107-.044.106-.043.108-.043.107-.043.108-.041.108-.04.108-.04.109-.04.11-.04.108-.038.11-.038.11-.036.11-.036.11-.036.112-.035.111-.034.111-.034.112-.033.112-.033.112-.03.113-.032.113-.03.113-.03.113-.028.114-.029.115-.027.113-.027.115-.026.115-.025.115-.026.115-.024.116-.023.116-.022.115-.022.117-.022.117-.02.117-.02.117-.019.118-.018.117-.018.118-.017.118-.016.118-.016.119-.015.119-.013.119-.014.12-.012.12-.012.119-.01.12-.011.12-.01.12-.009.122-.008.12-.007.122-.007.121-.006.122-.004.122-.005.122-.003.123-.003.122-.001.123-.002.123v.246l.002.123v.123l.004.122.003.122.005.123.004.122.006.121.007.122.007.121.008.121.009.12.01.121.01.12.011.12.012.12.012.12.014.12.013.119.015.119.016.119.016.117.017.119.018.118.018.117.019.118.02.117.02.117.022.116.022.117.022.116.023.116.024.116.026.115.025.115.026.115.027.114.027.114.029.115.028.113.03.114.03.113.031.113.031.112.033.113.033.112.034.111.034.112.035.11.036.112.036.11.036.11.038.11.039.11.039.11.04.109.04.108.04.109.041.108.043.108.043.107.043.107.044.107.045.107.045.106.046.106.047.106.047.104.047.105.05.105.048.104.05.104.05.103.05.104.052.102.052.103.053.102.053.102.054.101.055.1.055.102.056.1.056.1.057.1.057.098.058.1.059.097.059.098.06.099.06.097.061.096.061.097.063.096.062.096.063.095.064.095.065.095.065.094.065.093.066.094.066.093.067.092.068.092.068.092.068.091.07.09.07.091.07.09.07.09.072.089.072.088.073.088.072.088.073.087.074.087.075.087.075.086.075.086.076.084.076.085.078.084.077.083.078.084.079.083.079.082.079.082.08.081.08.08.081.081.081.08.082.08.082.078.084.079.083.078.084.077.084.077.084.077.085.075.085.076.087.075.086.074.088.074.087.073.087.074.089.072.088.071.09.072.09.07.089.071.09.07.091.069.091.068.092.069.092.067.093.067.093.067.093.065.094.066.094.065.095.064.094.063.096.064.096.063.096.061.096.062.097.06.098.061.097.06.098.06.1.058.098.058.099.057.1.057.1.057.1.055.1.055.102.055.101.054.102.052.102.053.102.053.103.051.104.05.103.05.104.05.104.05.105.048.104.048.106.047.106.047.105.046.107.045.106.044.107.045.107.043.108.043.108.042.108.041.108.041.11.04.108.04.11.039.11.038.11.038.11.037.11.036.111.035.111.035.112.035.111.033.113.033.112.033.113.031.113.031.113.03.114.03.113.029.115.028.114.028.115.026.115.027.115.025.115.025.116.024.115.023.117.023.116.022.117.021.117.02.117.02.118.02.118.017.117.018.119.017.118.016.119.016.119.015.119.013.12.014.12.012.119.012.12.011.12.01.121.01.121.009.121.008.121.007.122.007.122.006.122.004.122.005.122.003.123.003.123.002.123.001h.348l.222-.004.22-.006.218-.008.216-.01.214-.012.212-.015.209-.017.207-.018.207-.02.203-.023.202-.025.2-.027.197-.028.196-.03.194-.032.192-.035.19-.035.189-.037.187-.04.184-.041.184-.042.181-.044.18-.047.178-.047.177-.049.175-.05.173-.053.172-.054.17-.055.169-.056.167-.058.166-.06.164-.06.163-.062.16-.063.16-.065.159-.066.157-.067.156-.07.154-.069.153-.07.152-.073.15-.073.15-.074.147-.076.146-.076.146-.078.144-.079.143-.08.142-.08.14-.082.14-.083.137-.084.137-.084.135-.085.135-.087.133-.087.133-.088.131-.089.13-.09.13-.09.127-.09.127-.093.126-.092.125-.094.124-.093.123-.095.121-.095.12-.096.12-.096.118-.097.118-.097.116-.098.116-.098.115-.099.113-.099.113-.1.112-.1.11-.1.11-.1.109-.1.108-.102.107-.101.106-.102.105-.101.104-.102.104-.102.102-.102.1-.1.202-.207.197-.205.194-.204.191-.205.188-.203.184-.203.181-.202.178-.201.176-.2.173-.197.169-.196.335-.39.326-.38.316-.369.159-.183.15-.173.18-.19.195-.176.208-.159.22-.142.231-.123.24-.105.248-.084.254-.065.258-.045.26-.022.262-.003.261.019.26.04.254.06.25.081.24.101.233.12.223.138.21.156.198.172.183.187.167.202.15.214.133.225.114.236.095.244.075.251.054.257.034.259.013.261-.009.262-.03.26-.05.257-.07.253-.091.245-.11.237-.13.228-.146.217-.164.204-.143.164-.143.164-.306.357-.327.382-.348.405-.184.212-.188.217-.195.22-.2.227-.206.228-.212.233-.217.237-.223.24-.23.241-.235.244-.238.243-.126.127-.124.123-.126.125-.128.125-.13.125-.13.125-.133.126-.134.125-.136.127-.137.125-.14.126-.14.126-.143.126-.144.126-.146.126-.147.125-.15.126-.15.124-.154.125-.154.124-.157.125-.158.124-.16.123-.162.123-.164.122-.165.121-.168.122-.169.12-.17.12-.174.12-.175.118-.177.117-.178.117-.18.116-.183.115-.184.114-.187.113-.189.112-.19.11-.192.11-.194.108-.197.107-.198.106-.2.105-.203.103-.204.103-.206.1-.208.099-.21.097-.213.096-.214.095-.216.092-.219.091-.22.09-.222.087-.225.085-.226.084-.229.082-.23.08-.233.078-.235.076-.236.073-.239.072-.24.07-.243.067-.245.065-.247.063-.249.061-.25.058-.253.056-.255.054-.257.05-.259.05-.26.046-.263.043-.265.041-.266.039-.269.035-.27.034-.273.03-.275.027-.276.025-.278.022-.281.02-.283.016-.284.013-.286.01-.289.008-.29.005-.288.001h-.168l-.165-.002-.163-.002-.164-.004-.163-.005-.164-.006-.163-.006-.163-.008-.163-.008-.162-.01-.162-.011-.162-.012-.161-.013-.162-.014-.16-.015-.161-.015-.161-.017-.16-.018-.16-.019-.16-.02-.16-.02-.158-.022-.159-.023-.158-.023-.158-.025-.158-.026-.158-.027-.157-.027-.157-.028-.156-.03-.157-.03-.156-.031-.155-.033-.155-.033-.155-.035-.154-.035-.154-.035-.154-.038-.154-.037-.153-.04-.153-.039-.152-.04-.152-.043-.151-.042-.152-.043-.15-.045-.151-.045-.15-.046-.15-.047-.149-.048-.149-.049-.148-.05-.148-.05-.148-.051-.147-.053-.147-.053-.146-.054-.146-.055-.146-.056-.145-.057-.144-.057-.145-.058-.143-.06-.143-.06-.143-.06-.143-.062-.142-.063-.141-.063-.141-.065-.14-.065-.14-.066-.14-.066-.14-.068-.139-.068-.138-.07-.137-.07-.138-.07-.136-.072-.137-.073-.136-.073-.135-.074-.135-.074-.133-.076-.134-.076-.134-.077-.132-.078-.132-.079-.132-.08-.131-.08-.13-.08-.13-.082-.13-.082-.13-.084-.128-.084-.128-.085-.128-.085-.127-.086-.126-.088-.125-.087-.126-.088-.124-.09-.124-.09-.124-.09-.123-.091-.122-.092-.122-.093-.121-.093-.121-.095-.12-.095-.12-.095-.118-.096-.119-.097-.117-.098-.117-.099-.117-.098-.116-.1-.115-.1-.115-.102-.114-.102-.113-.102-.113-.103-.112-.104-.112-.104-.11-.105-.11-.106-.11-.107-.11-.107-.108-.107-.108-.109-.106-.108-.107-.11-.106-.11-.105-.111-.104-.111-.104-.113-.103-.112-.103-.114-.101-.114-.102-.114-.1-.116-.1-.115-.099-.117-.099-.117-.097-.117-.097-.119-.096-.119-.096-.119-.095-.12-.094-.12-.094-.122-.093-.122-.091-.122-.092-.123-.09-.123-.09-.124-.09-.125-.088-.125-.088-.126-.087-.126-.086-.127-.086-.127-.085-.128-.083-.128-.084-.13-.082-.13-.082-.13-.08-.13-.081-.13-.08-.132-.078-.133-.078-.132-.078-.133-.076-.134-.075-.134-.075-.135-.074-.135-.074-.136-.072-.136-.071-.137-.071-.137-.07-.138-.07-.138-.068-.139-.068-.139-.066-.139-.067-.14-.065-.14-.064-.141-.063-.142-.063-.142-.062-.143-.06-.142-.061-.143-.06-.144-.058-.144-.057-.145-.056-.145-.056-.145-.056-.147-.054-.146-.053-.146-.052-.147-.052-.148-.05-.148-.05-.148-.049-.15-.048-.149-.047-.149-.046-.15-.046-.15-.044-.151-.043-.152-.043-.151-.041-.152-.041-.152-.04-.153-.039-.153-.038-.153-.037-.154-.036-.154-.035-.154-.034-.156-.034-.154-.032-.156-.031-.156-.03-.156-.03-.157-.029-.156-.027-.158-.027-.157-.025-.157-.025-.159-.024-.158-.023-.159-.021-.159-.021-.159-.02-.16-.018-.16-.019-.16-.017-.16-.015-.16-.015-.162-.014-.161-.013-.162-.011-.161-.012-.162-.01-.163-.008-.163-.008-.162-.006-.163-.006-.163-.004-.164-.004-.164-.003-.163-.001-.164v-.33l.001-.164.003-.164.004-.164.004-.163.006-.163.006-.163.008-.163.009-.162.01-.163.01-.162.012-.162.013-.161.014-.161.015-.162.015-.16.017-.16.019-.16.018-.16.02-.16.02-.16.022-.159.023-.158.024-.158.025-.159.025-.157.027-.158.027-.157.029-.157.03-.156.03-.156.031-.157.032-.155.034-.155.034-.155.035-.154.036-.154.037-.154.038-.153.04-.154.039-.152.04-.152.042-.152.043-.152.043-.151.044-.15.046-.151.046-.15.047-.15.048-.149.049-.149.05-.148.05-.148.052-.148.052-.147.053-.146.054-.147.056-.146.056-.146.056-.145.057-.144.059-.144.059-.144.06-.143.061-.142.062-.143.063-.142.063-.141.064-.141.065-.14.067-.141.066-.14.068-.139.068-.139.07-.138.07-.137.07-.138.072-.136.072-.136.074-.136.074-.135.075-.135.075-.135.076-.133.078-.133.078-.133.078-.132.08-.132.08-.13.08-.131.083-.13.082-.13.084-.129.083-.128.085-.128.086-.128.086-.126.087-.127.088-.125.088-.126.09-.124.09-.124.09-.124.092-.122.091-.123.093-.121.094-.122.094-.12.095-.12.096-.12.096-.118.097-.119.097-.118.1-.117.098-.116.1-.116.1-.115.102-.114.101-.115.103-.113.103-.112.104-.113.104-.111.105-.111.106-.11.107-.11.107-.11.107-.107.109-.107.108-.108.11-.106.11-.106.111-.105.112-.105.112-.103.113-.104.113-.102.114-.102.115-.1.115-.101.116-.1.117-.099.117-.098.117-.098.119-.097.119-.096.12-.096.119-.095.12-.094.122-.093.122-.093.122-.092.123-.091.124-.09.124-.091.124-.09.126-.088.125-.087.126-.087.128-.086.127-.085.128-.086.128-.084.13-.083.129-.082.13-.082.13-.08.132-.08.132-.08.132-.079.132-.078.134-.077.134-.076.133-.076.135-.075.135-.074.136-.073.137-.072.136-.072.138-.07.137-.07.138-.07.14-.068.139-.068.139-.066.14-.067.14-.065.142-.064.141-.063.142-.063.143-.061.143-.061.143-.06.143-.06.145-.058.144-.058.145-.056.146-.056.146-.055.146-.054.147-.053.147-.053.148-.051.148-.05.148-.05.15-.05.148-.047.15-.047.15-.046.15-.046.151-.044.152-.043.151-.043.152-.041.152-.041.153-.04.153-.039.154-.038.154-.037.154-.036.154-.035.155-.034.155-.033.155-.033.156-.031.157-.03.156-.03.157-.028.157-.028.158-.026.158-.026.158-.025.158-.024.159-.022.159-.022.159-.02.16-.02.16-.02.16-.017.16-.017.161-.016.161-.015.162-.013.16-.013.163-.012.162-.011.162-.01.163-.008.163-.008.163-.007.164-.005.163-.005.164-.004.163-.002.165-.002h.336z"/><path d="M283.05 64.074l.163.002.164.002.164.004.164.005.163.005.163.007.163.008.163.008.162.01.162.011.162.012.162.013.161.013.16.015.161.016.16.017.162.017.16.02.159.02.16.02.158.022.16.022.157.024.159.025.157.026.157.026.158.028.157.028.156.03.156.03.156.031.156.033.155.033.155.034.155.035.154.036.153.037.154.038.153.039.152.04.153.04.152.042.151.043.152.043.15.044.15.046.151.046.15.047.15.048.148.049.148.05.149.05.146.051.148.053.147.053.146.054.146.055.146.056.145.056.144.058.144.058.144.06.144.06.142.06.143.063.142.062.141.063.141.064.14.065.141.067.14.066.14.068.138.068.137.07.138.07.137.07.138.072.136.072.136.073.135.074.134.075.135.076.133.076.134.077.132.078.133.079.131.08.132.08.13.08.13.082.13.082.13.083.127.084.128.086.128.085.127.086.126.087.126.087.125.089.125.089.124.09.123.09.123.092.122.092.122.093.121.093.12.094.121.095.12.096.118.096.119.097.117.098.117.098.117.1.115.099.116.1.115.101.113.102.114.102.113.104.112.103.111.105.112.105.11.106.11.106.109.107.108.108.108.108.107.109.106.11.106.11.105.111.104.111.104.113.104.112.102.113.102.115.1.114.101.115.1.116.1.117.098.116.097.118.097.119.097.119.095.119.095.12.095.12.093.122.093.121.092.123.091.122.09.124.09.124.09.124.088.126.088.125.087.127.086.126.086.128.084.128.084.128.084.13.083.129.081.13.081.13.08.131.08.132.078.132.078.133.078.133.076.133.076.135.075.135.073.135.074.135.072.137.072.136.07.138.07.137.07.138.068.14.068.139.067.139.066.14.065.14.064.142.064.14.062.143.062.142.061.143.06.143.059.144.058.144.058.145.057.145.056.145.054.146.054.147.054.146.052.147.052.148.05.148.05.148.049.15.048.148.047.15.046.15.045.15.045.15.043.152.043.152.042.152.04.152.04.152.039.153.038.154.037.154.036.154.035.155.034.154.034.155.032.155.031.157.03.156.03.156.029.157.027.157.027.158.026.157.024.158.024.159.023.158.022.16.02.159.02.16.019.16.017.16.017.16.016.16.015.162.014.161.013.161.011.162.011.162.01.163.009.162.007.163.007.163.006.163.005.163.003.164.003.164.002.165v.328l-.002.165-.003.163-.003.164-.005.164-.006.163-.007.163-.007.163-.009.162-.01.163-.01.162-.012.161-.013.162-.014.161-.015.161-.016.16-.017.161-.017.16-.019.16-.02.16-.02.159-.022.16-.023.158-.024.159-.024.158-.026.157-.027.157-.027.158-.029.156-.03.157-.03.156-.03.156-.033.156-.034.155-.034.154-.035.155-.036.154-.037.154-.038.154-.04.152-.039.153-.04.152-.042.152-.043.151-.043.152-.045.15-.045.151-.046.15-.047.15-.048.149-.049.149-.05.148-.05.148-.052.148-.052.147-.054.146-.054.147-.054.146-.056.145-.057.145-.058.145-.058.144-.06.144-.059.143-.061.143-.062.142-.062.142-.064.142-.064.14-.065.14-.066.141-.067.14-.068.138-.068.139-.07.138-.07.138-.07.137-.072.137-.072.137-.074.135-.073.135-.075.135-.076.134-.076.134-.078.133-.078.132-.078.133-.08.131-.08.131-.081.13-.081.13-.083.13-.084.13-.084.128-.084.128-.086.127-.086.127-.087.126-.088.126-.088.125-.09.125-.09.124-.09.123-.091.123-.092.122-.093.122-.093.122-.095.12-.095.12-.096.12-.096.118-.097.119-.097.117-.099.117-.1.117-.099.115-.1.116-.101.114-.102.114-.102.114-.104.112-.104.113-.104.11-.105.112-.106.11-.106.11-.107.108-.108.109-.108.108-.11.106-.11.107-.11.105-.11.106-.112.104-.112.104-.113.103-.114.102-.113.102-.115.101-.116.1-.115.1-.117.1-.117.098-.117.098-.119.097-.119.096-.12.095-.12.095-.12.095-.121.093-.122.093-.122.092-.123.091-.123.09-.124.09-.125.09-.125.088-.126.088-.126.087-.127.086-.128.085-.128.085-.128.084-.13.084-.129.082-.13.081-.13.082-.132.08-.131.079-.133.079-.132.078-.134.077-.133.076-.135.076-.134.074-.135.074-.136.074-.136.072-.138.072-.137.07-.138.07-.137.07-.139.068-.14.068-.139.066-.14.066-.14.065-.142.065-.141.063-.142.062-.143.063-.142.06-.144.06-.144.06-.144.058-.144.057-.145.057-.146.056-.146.055-.146.054-.147.053-.147.053-.147.05-.149.052-.149.049-.148.049-.15.048-.149.047-.15.046-.15.045-.151.045-.152.043-.151.042-.152.042-.153.041-.152.04-.153.039-.154.037-.153.038-.154.035-.155.035-.155.035-.155.033-.156.033-.156.03-.156.031-.156.03-.157.028-.157.027-.158.027-.157.026-.159.025-.158.023-.159.023-.159.022-.16.02-.158.02-.161.02-.16.017-.16.017-.161.015-.16.015-.162.014-.162.013-.162.012-.162.01-.162.01-.163.009-.163.008-.163.006-.163.006-.164.005-.164.004-.164.002-.163.001-.167.001h-.17l-.171-.003-.172-.003-.171-.006-.171-.007-.17-.008-.171-.01-.17-.011-.17-.013-.17-.014-.17-.015-.168-.017-.17-.019-.168-.02-.168-.021-.169-.023-.167-.023-.168-.026-.167-.026-.167-.028-.166-.03-.167-.03-.165-.032-.166-.034-.165-.034-.166-.036-.164-.037-.165-.038-.164-.04-.163-.04-.164-.043-.163-.043-.162-.045-.163-.045-.162-.047-.162-.048-.161-.05-.161-.05-.16-.05-.16-.053-.161-.054-.16-.055-.16-.056-.158-.056-.16-.059-.157-.06-.158-.059-.157-.061-.158-.062-.157-.064-.157-.064-.156-.065-.156-.066-.155-.067-.156-.069-.155-.068-.154-.07-.154-.072-.155-.072-.153-.073-.153-.074-.154-.074-.152-.076-.153-.077-.152-.077-.152-.079-.151-.079-.152-.08-.15-.08-.15-.083-.15-.082-.15-.083-.15-.085-.15-.084-.148-.086-.153-.09-.293-.173-.295-.179-.294-.181-.293-.185-.292-.188-.292-.19-.289-.193-.289-.196-.288-.2-.286-.2-.285-.204-.285-.206-.284-.21-.282-.211-.282-.213-.28-.216-.28-.219-.279-.22-.277-.223-.277-.224-.276-.227-.275-.229-.275-.23-.273-.233-.272-.234-.271-.236-.272-.238-.27-.24-.268-.241-.268-.243-.268-.244-.266-.246-.266-.248-.265-.248-.264-.25-.263-.251-.263-.253-.262-.255-.26-.254-.262-.257-.259-.256-.258-.26-.258-.258-.258-.26-.256-.262-.256-.261-.255-.263-.254-.263-.254-.264-.253-.265-.252-.265-.251-.266-.25-.266-.25-.267-.25-.267-.25-.268-.493-.535-.492-.536-.49-.537-.486-.537-.483-.537-.481-.536-.478-.534-.475-.533-.472-.531-.935-1.054-.924-1.042-.458-.515-.455-.51-.451-.507-.451-.503-.167-.202-.15-.215-.132-.226-.114-.236-.094-.244-.074-.251-.054-.256-.033-.26-.012-.262.009-.261.03-.26.051-.257.072-.252.09-.246.112-.237.13-.228.147-.215.165-.204.18-.19.195-.175.209-.158.22-.141.231-.123.24-.104.248-.085.254-.064.259-.043.26-.023.262-.001.261.02.259.04.254.061.25.082.24.101.233.12.222.14.21.156.198.172.182.188.455.508.458.513.46.517.461.52.926 1.043.932 1.05.468.527.47.526.47.526.472.526.473.525.475.524.475.522.477.52.48.519.238.257.24.257.24.256.24.255.241.255.24.253.242.253.241.251.242.251.242.25.243.247.242.247.243.245.243.244.243.243.243.241.244.24.244.238.244.237.244.235.244.233.245.232.244.23.245.228.246.225.245.225.245.221.245.22.246.219.245.215.246.214.246.212.245.208.246.207.246.205.246.202.246.2.246.196.246.195.246.192.245.189.246.186.246.184.245.18.246.179.245.175.245.173.245.169.245.166.245.163.244.16.245.157.244.154.244.15.243.148.247.146.118.07.122.07.121.068.121.069.121.067.122.067.12.065.122.065.12.064.121.063.121.062.12.062.12.06.12.06.121.059.12.058.12.056.12.056.12.056.12.054.12.054.119.052.119.052.12.05.119.05.119.049.118.048.119.046.118.047.12.045.118.044.117.043.119.042.117.042.118.04.118.04.118.038.117.038.117.036.117.036.117.034.117.034.117.033.117.032.116.03.117.03.116.03.116.028.116.026.116.027.116.025.115.024.115.023.116.022.115.022.115.02.116.02.115.018.115.017.114.017.115.015.115.014.114.014.115.012.114.012.114.01.114.01.115.008.114.008.114.006.114.006.114.005.114.003.114.003.114.001h.36l.123-.003.123-.003.122-.003.122-.005.122-.004.122-.006.122-.007.121-.007.121-.008.121-.009.12-.01.12-.01.12-.01.12-.013.12-.012.12-.014.119-.013.119-.015.119-.016.118-.016.119-.017.118-.018.118-.018.117-.019.117-.02.117-.02.117-.021.116-.022.117-.023.115-.023.116-.024.116-.025.115-.025.114-.027.115-.026.114-.028.115-.028.113-.029.114-.03.113-.03.113-.031.113-.031.112-.033.112-.033.112-.033.111-.035.112-.035.11-.035.111-.036.11-.037.11-.038.11-.038.11-.04.11-.038.108-.04.108-.042.108-.041.108-.042.107-.043.108-.043.107-.045.107-.044.106-.045.106-.046.105-.047.105-.047.105-.048.105-.048.104-.05.104-.05.103-.05.104-.05.103-.051.102-.053.102-.052.102-.053.102-.054.1-.055.101-.055.1-.055.1-.057.1-.057.1-.057.098-.058.099-.059.098-.059.097-.06.098-.06.097-.06.097-.063.095-.061.096-.063.095-.064.095-.063.095-.064.095-.065.093-.066.093-.065.093-.067.093-.067.092-.067.091-.069.092-.068.09-.07.091-.069.09-.07.09-.071.089-.072.089-.071.087-.072.089-.074.087-.073.086-.074.087-.074.086-.075.086-.076.085-.075.084-.077.085-.077.084-.077.082-.078.084-.079.081-.078.082-.08.082-.08.08-.08.08-.081.08-.081.08-.082.08-.082.078-.083.078-.084.078-.083.076-.084.076-.085.077-.085.075-.085.075-.086.075-.087.074-.087.073-.087.073-.088.072-.088.072-.088.071-.09.071-.09.07-.089.07-.09.07-.09.068-.092.068-.092.068-.092.067-.092.067-.093.065-.094.066-.093.065-.095.064-.094.063-.095.063-.095.064-.096.061-.096.062-.097.06-.096.061-.097.06-.099.06-.098.058-.098.057-.099.058-.099.057-.1.056-.1.056-.1.055-.1.055-.102.054-.1.053-.102.053-.103.052-.102.051-.102.05-.104.051-.103.05-.104.05-.104.047-.105.048-.105.047-.104.047-.106.046-.106.045-.106.045-.107.044-.107.043-.107.043-.107.042-.108.042-.108.04-.109.04-.108.04-.11.04-.109.038-.11.037-.109.037-.11.037-.11.035-.112.035-.111.035-.112.033-.111.033-.112.032-.113.032-.112.03-.113.031-.113.03-.114.029-.113.028-.114.027-.115.027-.114.026-.115.026-.115.025-.115.024-.116.023-.116.023-.116.021-.117.022-.116.02-.117.02-.117.019-.118.019-.118.017-.117.017-.119.016-.118.015-.118.015-.12.015-.118.013-.12.012-.12.012-.12.01-.12.011-.12.01-.12.008-.121.009-.121.007-.12.006-.123.006-.121.006-.122.003-.122.004-.123.003-.122.002-.123.001-.123v-.246l-.001-.123-.002-.123-.003-.122-.004-.123-.003-.123-.006-.121-.006-.122-.006-.121-.007-.121-.009-.121-.008-.121-.01-.121-.01-.12-.011-.12-.012-.12-.012-.12-.013-.119-.015-.119-.015-.119-.015-.118-.016-.119-.017-.118-.017-.118-.02-.117-.018-.118-.02-.117-.02-.117-.022-.117-.021-.116-.023-.116-.023-.116-.024-.116-.025-.115-.026-.115-.026-.115-.027-.115-.027-.114-.028-.114-.03-.114-.029-.113-.03-.113-.03-.113-.033-.113-.032-.112-.033-.112-.033-.112-.035-.11-.035-.112-.035-.111-.037-.11-.037-.111-.037-.11-.039-.11-.039-.109-.04-.109-.04-.109-.04-.108-.042-.108-.042-.108-.043-.107-.043-.108-.044-.106-.045-.107-.045-.106-.046-.106-.047-.105-.047-.106-.048-.104-.048-.105-.05-.104-.049-.104-.05-.103-.051-.104-.051-.103-.052-.102-.053-.102-.053-.102-.054-.1-.055-.102-.055-.1-.056-.101-.056-.1-.057-.1-.058-.098-.057-.1-.059-.098-.06-.098-.059-.098-.06-.097-.06-.097-.063-.097-.061-.095-.064-.096-.063-.095-.063-.095-.064-.095-.065-.094-.066-.093-.065-.094-.067-.093-.067-.092-.068-.092-.068-.092-.069-.091-.07-.09-.069-.091-.07-.09-.07-.09-.072-.089-.072-.088-.072-.089-.073-.087-.073-.088-.074-.087-.075-.086-.075-.086-.075-.085-.077-.085-.076-.085-.076-.084-.078-.084-.078-.083-.078-.083-.08-.082-.08-.082-.08-.081-.08-.08-.08-.082-.082-.08-.082-.079-.081-.079-.084-.078-.082-.078-.084-.078-.085-.076-.084-.077-.085-.076-.086-.075-.086-.075-.087-.075-.086-.074-.087-.072-.089-.074-.087-.072-.09-.072-.089-.071-.089-.071-.09-.07-.09-.07-.09-.069-.093-.069-.091-.068-.092-.068-.093-.067-.093-.066-.093-.066-.093-.065-.095-.065-.095-.064-.095-.064-.095-.063-.096-.063-.095-.062-.097-.061-.097-.06-.098-.061-.097-.06-.098-.06-.099-.058-.098-.058-.1-.058-.1-.056-.1-.057-.1-.055-.1-.055-.101-.055-.102-.054-.102-.053-.102-.052-.102-.053-.103-.051-.104-.051-.103-.05-.104-.05-.104-.049-.104-.048-.106-.048-.105-.048-.105-.046-.106-.046-.106-.045-.107-.045-.107-.044-.108-.044-.107-.042-.108-.042-.108-.042-.108-.04-.109-.04-.11-.04-.108-.039-.11-.038-.11-.038-.11-.037-.111-.037-.111-.035-.112-.035-.11-.034-.113-.034-.112-.033-.112-.032-.113-.031-.113-.031-.113-.031-.114-.03-.113-.028-.115-.029-.114-.027-.115-.026-.114-.027-.115-.026-.116-.024-.116-.024-.115-.024-.117-.022-.116-.022-.117-.021-.117-.02-.117-.02-.117-.02-.118-.018-.118-.017-.119-.017-.118-.016-.119-.016-.118-.015-.12-.014-.12-.013-.119-.013-.12-.011-.12-.011-.12-.01-.121-.01-.12-.01-.122-.008-.121-.007-.122-.006-.122-.006-.122-.005-.122-.004-.122-.003-.123-.004-.123-.002h-.471l-.222.004-.22.006-.218.007-.216.01-.214.013-.211.014-.21.017-.208.018-.205.021-.204.023-.201.025-.2.026-.198.028-.196.031-.194.032-.192.034-.19.036-.189.037-.187.04-.184.04-.184.043-.181.044-.18.046-.179.048-.176.049-.175.05-.173.052-.172.054-.17.056-.169.056-.167.058-.166.06-.164.06-.162.062-.162.063-.16.065-.158.066-.157.067-.156.069-.154.07-.153.07-.152.072-.15.074-.149.074-.148.075-.147.077-.145.078-.144.078-.142.08-.142.08-.14.083-.14.082-.138.084-.137.085-.136.085-.134.086-.134.088-.132.087-.132.09-.13.09-.128.09-.128.09-.127.092-.126.093-.125.093-.124.094-.122.095-.122.095-.12.095-.12.097-.119.097-.117.097-.117.098-.115.098-.115.099-.113.098-.113.1-.111.1-.112.1-.11.1-.108.101-.108.102-.107.101-.106.101-.105.102-.104.102-.103.102-.103.102-.099.1-.203.207-.197.204-.194.205-.19.204-.188.204-.185.203-.18.202-.18.2-.175.2-.173.198-.169.196-.335.39-.326.38-.316.368-.158.184-.152.173-.18.19-.194.175-.208.16-.22.141-.231.124-.24.105-.248.084-.253.065-.258.044-.261.023-.262.003-.261-.02-.259-.04-.255-.06-.249-.08-.242-.101-.232-.12-.223-.139-.21-.155-.198-.172-.182-.188-.168-.2-.15-.215-.133-.226-.114-.235-.095-.245-.075-.25-.055-.256-.033-.26-.013-.262.009-.261.029-.26.05-.257.07-.252.092-.246.11-.237.13-.228.146-.217.164-.204.143-.164.142-.165.307-.357.327-.381.348-.405.184-.213.189-.216.194-.221.2-.226.206-.229.211-.233.218-.236.223-.24.23-.24.235-.245.238-.243.126-.127.125-.124.126-.125.127-.124.13-.125.13-.126.133-.125.135-.126.135-.126.138-.125.139-.127.14-.126.143-.125.144-.126.146-.126.148-.125.149-.126.151-.125.153-.125.154-.124.157-.124.158-.123.16-.124.162-.123.164-.122.166-.122.167-.121.169-.12.17-.12.174-.12.175-.118.176-.117.18-.117.18-.116.182-.115.185-.114.186-.113.188-.112.19-.11.193-.11.194-.108.197-.108.198-.106.2-.104.202-.104.205-.102.206-.1.208-.099.21-.097.212-.097.215-.094.216-.092.218-.091.22-.09.223-.087.225-.085.226-.084.229-.082.23-.08.233-.078.234-.076.237-.074.239-.071.24-.07.243-.067.245-.065.246-.064.25-.06.25-.059.253-.055.255-.054.257-.051.258-.049.261-.046.263-.044.264-.04.267-.039.27-.036.27-.033.272-.03.275-.028.277-.024.278-.023.28-.018.283-.017.284-.013.286-.01.288-.009.291-.004.289-.001h.168z"/><path d="M267.11 2.186l.412.004.41.006.409.009.409.01.408.015.408.016.407.019.406.02.406.025.405.026.405.027.404.032.402.033.403.036.401.038.4.04.401.043.4.046.398.047.398.05.398.052.396.056.396.057.394.059.394.062.394.064.393.066.391.069.39.071.39.073.39.076.388.078.388.08.386.083.386.084.385.087.384.09.383.09.382.094.381.096.38.099.38.1.378.102.378.105.376.107.375.109.375.111.374.113.372.116.372.118.37.12.37.121.37.124.366.126.367.13.366.13.364.132.363.134.362.137.362.139.36.14.36.143.357.145.357.147.356.149.354.15.354.154.352.155.351.157.35.159.35.161.347.163.347.165.345.167.344.169.343.17.342.173.34.175.34.177.337.178.337.18.336.183.335.184.332.186.332.188.33.19.33.192.328.194.327.195.325.197.324.2.322.2.322.203.32.205.319.206.317.209.316.21.314.211.314.214.312.215.31.218.309.218.307.221.307.223.305.223.303.227.302.227.3.229.299.232.298.232.296.234.294.236.293.238.292.24.29.24.288.243.287.244.286.247.284.247.283.25.28.25.28.253.277.253.277.257.274.257.273.258.272.261.27.262.268.263.266.266.266.266.262.268.262.27.26.271.259.273.256.274.255.276.254.277.252.279.25.28.248.282.246.282.245.285.243.286.241.288.24.289.238.29.236.292.234.293.233.294.23.296.23.298.227.298.225.3.223.302.222.303.22.304.218.305.216.307.215.308.212.31.21.31.209.313.207.313.205.315.203.316.201.317.2.319.197.32.195.321.193.322.192.324.189.325.188.326.185.327.184.328.181.33.18.33.177.333.176.333.173.334.172.336.169.337.168.338.165.339.163.34.161.341.159.343.157.343.155.345.153.346.15.346.15.348.145.35.145.35.142.35.14.352.138.353.136.354.133.356.131.356.13.357.127.359.124.359.123.36.12.36.118.363.115.364.114.364.111.364.109.367.107.366.104.368.102.369.1.37.097.37.096.372.092.372.091.373.088.374.086.375.084.376.081.377.079.377.076.378.074.38.072.379.068.381.067.382.065.381.062.383.06.385.056.384.055.386.052.385.05.387.047.388.044.388.043.389.04.39.036.39.035.39.032.392.03.393.027.393.025.393.022.395.02.395.016.395.014.396.012.397.01.397.006.398.004.398.001.403-.001.253-.004.253-.007.25-.008.246-.01.243-.008.181.172.08.177.085.177.085.177.085.176.087.175.087.175.088.175.089.174.09.174.09.174.09.172.092.172.092.172.093.172.094.17.094.171.096.17.096.169.096.169.098.168.098.168.099.168.1.166.1.167.101.166.102.165.102.165.104.164.103.164.105.163.105.163.106.163.107.161.107.162.108.16.11.16.108.16.11.159.11.159.113.158.112.157.113.157.113.157.114.155.115.156.115.155.116.154.117.153.118.154.118.152.119.152.12.151.119.151.12.15.123.15.122.149.122.149.124.148.123.147.125.147.125.146.126.145.127.145.127.145.128.143.128.144.128.143.13.142.13.141.131.141.132.14.132.14.133.138.133.139.134.138.134.137.135.136.136.136.137.136.136.134.138.134.138.133.139.133.14.132.139.131.14.131.141.13.142.13.142.129.143.128.143.128.144.126.144.126.145.126.146.125.146.124.147.124.147.122.148.123.148.121.15.121.149.12.15.12.15.119.15.118.153.117.152.117.153.116.153.115.154.115.154.114.155.113.155.112.156.112.157.111.157.11.157.11.158.11.159.107.158.108.16.107.16.106.16.105.162.105.16.104.163.103.162.102.164.102.163.1.164.1.165.1.164.1.166.097.166.097.166.096.167.097.168.094.167.094.169.094.168.092.17.092.17.091.17.09.17.09.171.089.172.087.172.087.172.087.173.085.173.085.174.084.175.083.174.082.175.082.176.08.175.08.177.08.177.078.177.078.178.076.178.076.178.075.179.074.18.074.18.072.18.072.18.071.181.07.181.07.182.068.183.067.182.066.182.067.184.064.184.065.184.063.184.062.186.062.184.06.186.06.186.06.187.057.187.057.186.057.188.055.188.055.188.053.189.053.189.052.189.051.19.05.19.05.19.048.19.047.191.046.192.046.192.045.192.043.192.044.193.042.193.04.193.04.194.04.194.038.194.038.195.036.194.035.196.035.195.034.197.032.195.032.197.031.197.03.196.029.198.028.198.027.198.026.198.025.198.025.199.022.199.023.199.02.2.022.2.019.2.018.2.017.2.017.201.015.201.015.202.013.202.013.201.011.202.01.203.01.202.009.203.008.203.006.203.005.204.005.203.004.204.002.204.002.205v.206l-.001.27-.003.27-.004.271-.006.27-.008.27-.01.27-.011.27-.013.268-.015.268-.017.267-.018.268-.02.267-.023.267-.023.266-.025.265-.028.265-.028.264-.03.265-.033.263-.033.263-.036.263-.037.262-.04.262-.04.261-.042.26-.043.26-.046.26-.047.26-.049.258-.05.258-.052.257-.054.257-.055.256-.056.256-.059.255-.06.254-.062.254-.063.254-.065.252-.066.253-.068.25-.07.252-.07.25-.074.25-.074.248-.075.249-.078.247-.078.247-.08.247-.082.246-.084.245-.085.244-.086.244-.088.243-.089.242-.09.242-.093.24-.094.24-.095.24-.097.24-.099.237-.1.237-.1.237-.103.236-.104.235-.105.234-.107.234-.108.232-.11.233-.11.23-.113.231-.114.23-.116.229-.116.228-.118.227-.12.227-.12.225-.123.225-.123.225-.125.223-.126.222-.128.222-.128.22-.131.22-.131.22-.133.217-.135.218-.135.216-.136.216-.139.214-.14.214-.14.213-.142.212-.143.211-.144.21-.146.21-.147.208-.149.208-.149.206-.15.205-.153.205-.153.204-.154.203-.156.202-.157.2-.158.2-.16.2-.16.198-.162.197-.163.196-.164.194-.165.195-.167.193-.167.192-.17.191-.17.19-.17.19-.173.188-.173.186-.174.186-.176.186-.177.184-.177.182-.18.182-.18.181-.181.18-.183.178-.183.178-.185.177-.185.175-.186.174-.188.174-.189.172-.19.171-.191.17-.192.169-.193.168-.194.167-.195.165-.196.164-.197.164-.199.162-.2.16-.199.16-.201.16-.203.157-.202.156-.205.155-.205.154-.206.154-.207.151-.208.15-.21.15-.21.148-.21.147-.212.146-.214.144-.213.143-.215.142-.215.141-.217.14-.218.138-.218.137-.22.136-.22.134-.22.134-.222.132-.224.131-.223.13-.225.128-.225.127-.226.126-.227.124-.229.123-.229.122-.23.12-.23.12-.231.118-.233.116-.232.115-.234.114-.235.112-.236.112-.236.11-.237.108-.238.107-.239.106-.239.104-.24.103-.241.102-.242.1-.242.1-.244.097-.244.095-.244.095-.246.093-.246.092-.247.09-.247.09-.249.087-.249.086-.25.084-.25.084-.25.082-.253.08-.252.079-.253.077-.254.076-.255.075-.255.072-.255.072-.257.07-.257.068-.258.067-.258.065-.26.065-.259.062-.26.06-.26.06-.262.058-.262.056-.263.055-.263.053-.263.052-.265.05-.265.048-.265.047-.266.046-.267.043-.267.043-.268.04-.268.039-.268.038-.27.035-.27.034-.27.033-.27.031-.271.03-.272.027-.273.026-.272.024-.273.023-.274.021-.274.02-.274.018-.275.016-.276.014-.276.012-.276.012-.277.01-.277.007-.277.006-.278.004-.279.003H188.601l-.3-.006-.281-.006-.281-.009-.28-.01-.28-.012-.279-.013-.278-.015-.278-.017-.279-.019-.277-.02-.277-.021-.276-.024-.276-.024-.276-.027-.275-.029-.275-.03-.273-.03-.274-.034-.273-.035-.273-.036-.272-.038-.271-.04-.271-.04-.271-.044-.27-.044-.27-.045-.268-.048-.268-.049-.268-.05-.267-.052-.266-.054-.267-.056-.265-.056-.265-.059-.264-.059-.264-.062-.263-.062-.262-.064-.262-.067-.261-.067-.26-.069-.26-.07-.26-.072-.258-.074-.258-.074-.257-.076-.257-.078-.256-.08-.255-.08-.255-.082-.254-.084-.253-.085-.253-.086-.251-.088-.251-.09-.25-.09-.25-.092-.25-.094-.248-.095-.248-.096-.246-.098-.246-.1-.246-.1-.244-.102-.244-.103-.243-.105-.242-.106-.241-.107-.241-.11-.24-.109-.24-.111-.238-.113-.237-.115-.237-.115-.235-.117-.236-.118-.234-.12-.233-.12-.233-.122-.231-.123-.231-.125-.23-.126-.23-.128-.228-.128-.228-.13-.226-.131-.226-.132-.225-.134-.223-.135-.224-.136-.222-.138-.221-.138-.22-.14-.22-.141-.219-.142-.217-.144-.216-.145-.216-.146-.215-.147-.214-.148-.213-.15-.212-.15-.21-.153-.21-.153-.21-.154-.208-.156-.207-.156-.206-.158-.205-.159-.204-.16-.204-.162-.202-.162-.2-.164-.2-.165-.2-.166-.198-.167-.197-.167-.196-.17-.195-.17-.193-.172-.194-.172-.191-.174-.19-.174-.19-.177-.19-.177-.187-.177-.186-.18-.185-.18-.185-.18-.182-.183-.182-.183-.181-.185-.18-.185-.179-.186-.178-.188-.176-.188-.175-.19-.174-.19-.173-.192-.172-.192-.17-.194-.17-.195-.168-.195-.167-.197-.166-.197-.165-.199-.163-.2-.163-.2-.161-.201-.16-.202-.159-.204-.157-.204-.157-.206-.155-.206-.154-.206-.152-.209-.151-.209-.15-.21-.15-.21-.147-.212-.146-.213-.145-.214-.144-.213-.143-.216-.14-.216-.141-.217-.139-.218-.137-.22-.136-.22-.134-.22-.134-.22-.132-.223-.13-.223-.13-.224-.128-.225-.127-.225-.125-.227-.124-.227-.123-.229-.12-.228-.12-.23-.119-.23-.117-.232-.115-.232-.115-.233-.113-.234-.111-.234-.11-.235-.109-.236-.107-.237-.106-.237-.104-.239-.103-.238-.102-.24-.1-.241-.098-.241-.097-.242-.096-.243-.094-.243-.092-.244-.091-.245-.09-.246-.088-.245-.087-.248-.085-.247-.083-.248-.083-.25-.08-.248-.08-.25-.077-.251-.076-.252-.074-.252-.073-.253-.071-.253-.07-.254-.068-.255-.067-.255-.064-.256-.064-.256-.062-.258-.06-.257-.059-.258-.056-.26-.056-.259-.054-.259-.052-.26-.05-.262-.05-.262-.047-.262-.045-.262-.044-.264-.042-.263-.04-.265-.04-.264-.037-.266-.036-.266-.034-.265-.031-.267-.031-.268-.03-.267-.026-.269-.025-.268-.024-.27-.022-.27-.02-.27-.019-.27-.017-.27-.015-.272-.013-.272-.011-.272-.01-.273-.008-.272-.006-.274-.005-.274-.003-.274v-.277l.001-.365.005-.367.008-.366.011-.365.014-.364.018-.364.02-.363.024-.363.027-.361.03-.36.033-.36.036-.359.04-.358.042-.357.045-.356.048-.356.052-.355.054-.353.057-.353.06-.352.063-.35.067-.35.069-.348.072-.348.075-.347.077-.346.08-.344.084-.344.087-.342.089-.341.092-.34.095-.34.097-.338.101-.337.103-.335.106-.334.109-.334.111-.332.115-.331.116-.33.12-.328.122-.327.125-.326.128-.325.13-.323.133-.322.135-.32.138-.32.14-.319.144-.316.145-.316.149-.313.15-.313.154-.311.155-.31.16-.308.16-.307.163-.306.166-.304.167-.302.17-.301.174-.3.175-.298.178-.297.18-.295.183-.293.184-.292.187-.29.19-.29.192-.286.194-.286.196-.284.198-.282.201-.28.203-.28.205-.278.207-.275.21-.274.212-.272.214-.27.216-.27.219-.267.22-.266.222-.264.225-.261.227-.26.228-.259.23-.257.234-.254.235-.253.237-.252.239-.249.24-.247.244-.246.244-.243.247-.242.25-.24.25-.238.253-.236.254-.234.257-.233.258-.23.26-.229.262-.226.264-.224.266-.223.267-.22.27-.219.271-.215.273-.215.275-.212.276-.21.278-.208.28-.206.282-.204.283-.202.286-.2.286-.197.288-.195.291-.194.215-.141-.051-.23-.06-.279-.057-.279-.054-.28-.052-.28-.049-.283-.046-.283-.044-.283-.04-.285-.039-.284-.035-.287-.033-.286-.03-.287-.026-.288-.024-.289-.022-.29-.019-.29-.015-.29-.013-.291-.01-.292-.007-.292-.005-.293v-.489l.002-.195.003-.196.005-.195.005-.194.007-.194.008-.194.01-.194.01-.193.013-.193.013-.193.015-.192.015-.193.017-.19.019-.193.019-.19.02-.191.023-.19.023-.191.024-.19.026-.19.026-.188.028-.19.03-.187.03-.188.032-.188.033-.187.033-.187.036-.187.036-.186.038-.185.038-.185.04-.185.041-.185.042-.184.043-.183.045-.183.045-.183.047-.182.048-.182.049-.182.05-.18.051-.18.053-.18.053-.18.055-.18.055-.178.057-.179.058-.177.06-.178.06-.176.06-.177.063-.175.063-.175.064-.175.066-.174.066-.174.069-.174.068-.172.07-.172.07-.172.073-.17.072-.172.074-.17.075-.17.076-.168.077-.169.078-.168.079-.167.08-.167.081-.166.083-.165.082-.166.084-.164.085-.164.087-.164.087-.162.088-.162.089-.162.09-.16.09-.161.092-.16.093-.16.094-.158.095-.158.095-.157.097-.157.098-.156.099-.155.098-.155.101-.154.102-.154.102-.152.103-.153.104-.151.105-.152.106-.15.107-.15.107-.148.11-.149.108-.147.11-.147.112-.146.112-.145.113-.145.114-.145.115-.143.115-.143.116-.142.118-.141.118-.141.119-.14.12-.14.12-.138.122-.138.122-.137.123-.136.124-.136.125-.135.126-.134.126-.133.127-.133.128-.132.13-.131.13-.13.13-.13.13-.13.133-.127.132-.128.134-.126.134-.126.135-.125.136-.124.137-.124.137-.123.138-.121.139-.121.14-.12.14-.12.14-.118.142-.119.144-.117.143-.115.144-.116.144-.115.146-.113.146-.114.147-.111.147-.112.148-.11.15-.11.15-.108.15-.108.15-.107.153-.106.152-.106.153-.104.154-.103.154-.103.155-.102.156-.1.157-.1.156-.1.158-.098.158-.097.16-.097.159-.095.16-.094.161-.094.162-.093.162-.092.162-.09.164-.091.164-.09.165-.087.164-.087.167-.087.166-.085.167-.084.167-.084.168-.082.17-.082.168-.08.17-.08.171-.079.171-.077.171-.077.172-.076.173-.075.173-.073.174-.073.174-.072.175-.07.176-.07.176-.069.176-.068.177-.067.177-.065.179-.065.178-.063.18-.063.179-.062.18-.06.18-.06.18-.058.182-.058.182-.056.183-.056.183-.054.183-.053.184-.052.184-.052.185-.05.185-.049.186-.048.186-.046.187-.046.187-.045.187-.043.188-.043.188-.041.19-.04.189-.04.189-.037.19-.037.19-.036.19-.035.192-.033.192-.033.191-.031.193-.03.192-.03.194-.027.193-.027.193-.025.195-.025.194-.023.195-.022.195-.021.196-.02.196-.019.196-.017.197-.016.197-.016.197-.013.197-.013.198-.011.198-.01.199-.01.199-.008.199-.006.2-.006.199-.004.2-.003.2-.002h.368l.167.001.167.002.167.003.166.004.166.005.167.006.166.006.166.007.165.008.166.01.165.01.164.01.165.011.164.013.165.013.164.014.164.015.163.015.163.017.163.017.163.018.162.019.163.02.162.02.166.022.318.045.322.048.32.051.32.056.319.058.317.06.316.064.315.068.314.07.312.074.312.077.31.079.309.082.308.086.306.088.305.092.303.094.303.098.3.1.3.103.298.106.297.109.295.112.294.114.292.117.29.12.29.123.288.126.286.128.285.13.283.134.281.136.28.14.278.141.277.144.275.147.274.149.27.152.228.13.07-.12.135-.236.137-.234.138-.233.138-.233.14-.232.14-.232.142-.23.142-.23.144-.23.145-.23.146-.228.146-.227.148-.227.149-.227.15-.225.15-.225.15-.224.154-.224.153-.223.154-.222.156-.221.156-.221.158-.22.158-.22.16-.218.159-.219.161-.217.162-.217.163-.215.164-.216.165-.214.166-.214.167-.213.167-.213.169-.21.17-.212.17-.21.171-.21.172-.208.173-.208.175-.207.174-.206.176-.206.177-.205.177-.204.18-.203.179-.203.18-.202.18-.201.183-.2.183-.2.183-.199.185-.198.185-.197.187-.196.187-.196.188-.195.19-.195.19-.193.19-.192.191-.192.193-.19.193-.191.194-.19.194-.188.196-.187.197-.187.197-.186.198-.185.199-.185.2-.183.2-.183.202-.182.202-.18.203-.18.204-.18.205-.179.205-.178.206-.176.208-.177.207-.175.209-.174.21-.173.21-.173.21-.171.212-.171.212-.17.214-.17.214-.168.214-.167.216-.166.216-.166.217-.165.218-.163.218-.163.22-.162.22-.161.22-.16.222-.16.222-.158.223-.157.224-.156.224-.157.226-.154.225-.154.227-.153.227-.152.228-.15.229-.15.23-.15.23-.148.23-.147.232-.146.232-.146.233-.144.233-.143.235-.143.235-.141.235-.14.237-.14.236-.14.238-.137.238-.137.24-.136.239-.134.24-.133.241-.134.242-.131.242-.13.243-.13.243-.13.245-.128.245-.126.245-.126.246-.125.247-.123.247-.123.248-.122.249-.12.249-.12.25-.12.25-.117.252-.117.251-.115.252-.115.253-.113.254-.112.254-.112.255-.11.255-.11.256-.108.256-.107.257-.106.258-.106.258-.104.259-.103.259-.101.26-.101.26-.1.261-.1.262-.097.262-.096.262-.096.264-.094.264-.093.264-.092.264-.091.266-.09.266-.089.266-.088.267-.086.268-.086.268-.085.268-.083.27-.082.269-.081.27-.08.27-.079.272-.077.27-.077.273-.075.273-.074.273-.074.274-.071.273-.071.275-.07.275-.069.276-.067.275-.066.277-.065.277-.064.277-.063.278-.061.278-.06.28-.06.278-.058.28-.057.28-.055.28-.055.281-.053.282-.052.282-.05.282-.05.282-.049.284-.047.283-.046.285-.045.284-.043.285-.043.285-.041.285-.04.287-.039.286-.037.286-.036.288-.036.287-.033.288-.033.29-.031.288-.03.288-.029.29-.028.29-.026.29-.025.291-.023.29-.023.292-.022.292-.02.292-.018.293-.017.292-.017.294-.015.293-.013.294-.013.294-.01.294-.01.295-.009.295-.007.295-.006.296-.004.297-.004.295-.002h.299l.41.001zm-.679 6.502l-.267.002-.267.002-.268.005-.266.005-.267.007-.266.007-.266.009-.265.01-.265.01-.265.013-.264.014-.265.014-.263.016-.263.017-.264.018-.262.02-.263.02-.262.02-.262.024-.261.023-.26.025-.262.026-.26.027-.26.028-.26.03-.259.03-.258.032-.259.032-.258.034-.257.035-.258.036-.257.037-.256.038-.256.04-.256.04-.255.041-.255.043-.255.043-.254.045-.254.046-.253.047-.253.047-.253.05-.252.05-.252.05-.25.053-.252.053-.25.055-.25.055-.25.056-.249.058-.249.058-.248.06-.248.06-.247.062-.247.063-.247.063-.246.065-.246.066-.245.067-.245.068-.244.069-.244.07-.243.07-.243.072-.243.073-.242.074-.241.075-.241.076-.24.077-.24.078-.24.079-.24.08-.239.08-.238.082-.237.083-.237.084-.237.085-.236.086-.236.087-.235.087-.235.089-.234.09-.234.09-.233.092-.232.093-.233.093-.231.095-.23.095-.232.096-.23.098-.23.098-.228.1-.229.1-.227.1-.228.103-.227.103-.226.103-.226.106-.225.105-.224.107-.224.108-.224.108-.222.11-.223.11-.221.111-.222.112-.22.113-.22.114-.22.115-.219.116-.218.116-.218.118-.217.118-.217.12-.216.12-.215.121-.214.122-.215.123-.213.123-.214.125-.212.126-.212.126-.21.127-.21.128-.21.13-.21.128-.209.131-.207.132-.208.132-.207.133-.206.134-.205.135-.205.135-.204.137-.204.137-.203.139-.202.138-.201.14-.201.14-.2.142-.2.142-.2.144-.198.143-.197.145-.197.145-.197.147-.195.146-.195.148-.194.149-.193.15-.194.15-.191.15-.192.153-.19.152-.19.153-.19.155-.189.154-.188.156-.187.156-.187.158-.186.158-.184.158-.185.16-.184.16-.182.161-.183.162-.181.162-.181.164-.18.164-.18.164-.178.166-.177.166-.178.167-.176.168-.176.168-.174.169-.174.17-.174.17-.172.172-.172.171-.17.173-.171.173-.17.175-.168.175-.168.174-.167.177-.167.177-.165.177-.165.179-.164.179-.163.18-.163.18-.161.18-.16.182-.16.182-.16.184-.158.183-.158.184-.157.185-.156.186-.154.186-.155.187-.154.188-.152.188-.152.189-.15.19-.151.19-.15.19-.148.191-.147.193-.147.192-.146.194-.145.194-.144.194-.144.195-.142.196-.142.197-.141.197-.14.198-.14.197-.137.2-.137.2-.137.2-.136.2-.134.201-.134.202-.133.203-.132.203-.131.203-.13.204-.13.205-.129.205-.127.206-.127.207-.125.207-.125.207-.124.209-.123.208-.123.21-.12.21-.12.21-.12.21-.119.212-.117.212-.117.213-.116.213-.114.214-.114.214-.113.214-.112.216-.111.215-.11.216-.108.217-1.57 3.156-.754.182-2.843-2.103-.198-.144-.2-.142-.202-.14-.203-.139-.204-.136-.206-.134-.208-.133-.209-.13-.21-.13-.211-.126-.214-.124-.214-.123-.216-.121-.217-.119-.219-.117-.22-.114-.22-.113-.223-.11-.224-.108-.225-.106-.226-.104-.227-.102-.229-.1-.23-.098-.23-.095-.233-.093-.233-.09-.235-.09-.235-.086-.237-.084-.238-.082-.24-.08-.24-.077-.24-.075-.243-.073-.243-.07-.245-.068-.245-.066-.246-.063-.248-.06-.249-.06-.249-.055-.25-.054-.252-.05-.251-.05-.254-.045-.254-.044-.255-.04-.256-.04-.261-.036-.124-.016-.129-.016-.13-.016-.129-.015-.13-.015-.13-.013-.13-.013-.13-.013-.13-.012-.13-.011-.131-.01-.131-.01-.131-.01-.132-.008-.132-.008-.132-.007-.132-.006-.132-.006-.132-.005-.133-.005-.133-.004-.133-.002-.133-.003-.134-.002h-.133l-.133-.001h-.162l-.16.002-.16.002-.16.004-.16.004-.159.005-.159.007-.159.007-.158.009-.158.009-.158.01-.158.011-.158.012-.156.013-.157.013-.157.015-.156.017-.155.016-.156.017-.155.02-.155.019-.155.02-.154.021-.154.023-.153.023-.154.024-.153.025-.152.026-.153.026-.152.028-.151.028-.152.03-.15.03-.15.031-.151.032-.15.033-.15.034-.149.035-.149.035-.148.037-.148.037-.148.038-.147.039-.147.04-.147.04-.145.042-.147.042-.145.043-.145.044-.145.045-.143.046-.145.046-.143.047-.143.048-.142.05-.143.05-.141.05-.142.051-.14.052-.142.054-.14.054-.14.054-.138.056-.14.055-.137.058-.138.058-.138.058-.137.06-.137.06-.136.06-.136.062-.135.062-.134.063-.135.064-.134.065-.133.065-.133.067-.133.067-.132.067-.131.068-.131.07-.131.07-.13.07-.13.072-.128.072-.129.073-.128.074-.128.074-.127.074-.126.076-.126.077-.126.077-.125.078-.124.079-.124.078-.124.08-.122.081-.123.081-.121.082-.122.083-.12.084-.12.084-.12.084-.12.086-.118.086-.118.086-.117.088-.117.088-.116.089-.116.089-.115.09-.115.09-.113.092-.114.091-.112.093-.113.093-.111.094-.11.095-.111.095-.11.095-.11.097-.108.097-.108.097-.107.098-.107.1-.106.099-.105.1-.105.1-.104.1-.104.103-.103.102-.102.103-.101.104-.102.104-.1.104-.1.105-.098.106-.1.107-.097.106-.097.108-.096.108-.096.108-.095.11-.094.11-.094.11-.093.11-.092.111-.092.112-.091.112-.09.113-.09.114-.088.113-.088.115-.087.115-.088.115-.085.116-.086.117-.084.117-.084.117-.083.118-.083.119-.081.119-.081.12-.08.119-.08.12-.078.121-.078.121-.078.122-.076.123-.076.122-.075.123-.074.124-.073.124-.073.124-.072.126-.071.125-.07.126-.07.126-.069.127-.068.127-.067.128-.067.128-.065.128-.065.13-.064.129-.064.129-.062.13-.062.131-.06.131-.06.131-.06.132-.059.132-.057.134-.057.132-.056.134-.055.134-.054.134-.054.134-.053.136-.051.135-.052.135-.05.136-.049.137-.048.137-.048.137-.047.138-.046.137-.044.138-.045.139-.043.14-.042.139-.042.14-.041.139-.04.14-.039.141-.038.142-.037.14-.037.142-.035.143-.034.142-.034.143-.033.143-.032.143-.03.144-.03.144-.03.144-.028.144-.028.145-.026.146-.026.146-.024.145-.024.147-.023.146-.021.147-.02.147-.021.148-.019.147-.018.148-.017.149-.016.148-.015.149-.014.149-.013.15-.013.149-.012.15-.01.15-.01.15-.008.151-.007.151-.006.152-.006.151-.005.152-.003.153-.002.152-.002.153v.382l.004.229.006.229.008.227.01.228.012.227.014.226.017.225.019.225.02.224.024.224.026.223.027.222.03.222.031.221.034.22.036.22.038.219.04.218.043.218.044.216.046.216.048.215.05.214.053.214.054.213.057.211.059.211.06.21.062.21.065.208.87 2.715-2.535 1.469-.257.151-.257.154-.255.156-.253.158-.252.16-.251.161-.25.163-.248.165-.246.167-.245.17-.244.17-.242.172-.24.174-.24.176-.237.178-.236.18-.235.18-.233.184-.231.184-.23.186-.229.189-.227.19-.225.191-.223.193-.222.195-.22.196-.22.198-.216.2-.216.2-.213.204-.212.205-.21.206-.21.207-.207.21-.204.21-.204.212-.202.214-.2.215-.198.218-.196.217-.195.22-.192.222-.192.222-.189.225-.187.225-.185.227-.184.23-.182.229-.18.231-.178.233-.176.234-.174.235-.172.237-.17.238-.17.24-.166.24-.164.242-.163.244-.16.245-.158.246-.157.247-.154.249-.153.25-.15.25-.149.253-.146.253-.144.255-.142.256-.14.257-.139.258-.136.26-.134.26-.13.262-.13.263-.128.264-.125.266-.123.266-.121.267-.118.268-.117.27-.114.27-.113.273-.109.272-.108.274-.105.275-.103.276-.1.277-.1.278-.096.279-.094.28-.091.28-.09.283-.086.282-.085.284-.083.285-.08.285-.077.287-.075.287-.073.288-.07.29-.068.29-.066.291-.063.293-.06.292-.059.294-.055.294-.053.296-.051.296-.048.297-.046.298-.043.299-.041.3-.038.3-.036.3-.033.303-.03.302-.028.304-.025.304-.023.305-.02.305-.017.307-.015.307-.012.308-.01.309-.007.31-.003.309-.002.312v.23l.004.233.003.231.006.232.006.23.009.23.01.23.01.23.013.23.014.228.016.228.017.229.018.227.02.227.021.226.024.227.024.226.026.225.027.225.028.225.03.224.032.223.032.224.035.222.036.223.036.222.04.221.039.221.04.22.044.22.043.22.046.22.047.218.047.218.05.218.05.217.052.216.054.216.055.216.056.215.057.215.059.214.06.213.062.214.062.212.064.212.065.211.067.211.068.21.069.21.07.21.072.208.074.208.074.208.075.207.077.207.078.206.08.205.08.205.083.204.082.204.085.202.086.203.086.202.089.2.089.201.09.2.092.2.093.198.094.199.096.197.097.197.097.196.099.195.1.195.101.195.103.193.104.193.104.192.106.192.108.19.108.19.11.19.11.189.112.189.113.187.114.186.115.186.116.186.118.184.118.184.12.184.12.183.122.181.123.181.125.18.124.18.127.179.127.178.129.177.13.177.13.175.131.175.133.174.134.174.134.172.136.173.137.17.138.171.139.17.14.168.14.168.143.167.143.166.144.166.145.164.146.163.147.164.148.162.15.16.15.161.15.16.153.158.152.158.155.157.154.156.156.155.157.155.158.153.159.152.159.152.16.15.163.15.161.15.164.147.164.147.165.146.167.146.167.143.168.144.169.143.17.14.17.141.171.14.173.138.173.138.174.136.175.136.176.135.176.134.178.132.178.132.18.13.18.13.18.128.182.129.183.126.183.126.184.124.185.124.186.122.186.122.188.12.187.12.19.118.19.117.19.117.191.115.192.114.193.113.193.112.195.11.195.11.196.11.196.107.197.107.198.105.199.104.2.104.2.102.2.1.202.1.202.099.203.097.204.097.204.095.205.095.206.093.207.091.206.091.208.09.208.088.21.087.21.086.21.085.21.083.213.083.212.081.213.08.213.079.215.078.214.076.216.075.215.074.218.073.217.071.218.07.218.07.219.068.22.066.22.065.22.064.221.063.223.061.222.06.223.06.224.057.224.057.225.054.224.054.226.053.226.052.227.049.228.049.228.047.228.046.229.045.23.043.229.042.23.04.231.04.232.038.231.036.233.036.232.033.234.033.234.031.234.03.235.029.235.026.235.026.237.024.236.023.237.022.237.02.238.019.238.017.239.016.24.014.24.013.239.012.24.01.241.009.241.007.242.006.222.004h123.494l.24-.003.237-.003.237-.005.238-.007.236-.008.237-.01.236-.01.236-.013.234-.014.235-.015.234-.016.234-.019.234-.02.232-.02.233-.022.232-.024.231-.025.232-.026.23-.028.23-.03.23-.03.23-.032.228-.033.228-.034.229-.037.226-.037.227-.039.227-.04.226-.04.225-.043.225-.044.224-.046.224-.046.223-.048.223-.05.222-.05.222-.052.22-.053.222-.055.22-.056.219-.056.219-.059.218-.059.218-.061.217-.062.217-.063.216-.065.216-.066.214-.067.215-.068.214-.07.212-.07.213-.073.212-.073.211-.075.21-.075.211-.077.21-.079.209-.079.208-.08.207-.082.207-.083.206-.084.206-.085.205-.087.204-.087.204-.089.203-.09.202-.091.201-.093.201-.092.2-.095.2-.096.2-.097.198-.097.197-.1.197-.1.195-.102.196-.102.195-.104.193-.104.193-.106.193-.106.192-.108.19-.11.19-.11.19-.11.189-.113.188-.113.187-.115.186-.115.186-.117.184-.117.184-.119.184-.12.182-.12.182-.122.18-.123.18-.123.18-.125.178-.126.177-.127.177-.128.176-.128.175-.13.175-.131.173-.132.172-.132.172-.134.17-.135.17-.136.17-.136.168-.138.168-.139.165-.139.166-.14.165-.142.164-.142.163-.143.161-.145.161-.145.16-.145.16-.147.158-.149.158-.149.156-.15.155-.15.155-.15.153-.153.153-.153.152-.155.15-.154.15-.156.149-.157.148-.157.146-.16.146-.158.145-.16.144-.161.143-.162.142-.162.14-.164.14-.164.14-.165.137-.166.137-.167.136-.167.135-.168.133-.17.133-.17.132-.17.13-.172.13-.171.128-.173.127-.174.126-.175.126-.175.124-.176.123-.177.122-.177.121-.178.12-.18.119-.179.117-.18.117-.181.115-.182.114-.183.114-.183.111-.184.112-.185.11-.185.108-.186.107-.187.107-.187.105-.189.104-.188.103-.19.102-.19.1-.19.1-.192.098-.192.097-.193.096-.193.094-.194.094-.195.092-.195.091-.196.09-.196.09-.198.086-.197.086-.198.085-.199.084-.2.083-.2.081-.2.08-.202.08-.201.077-.203.076-.203.075-.204.074-.204.073-.205.07-.205.07-.206.07-.206.067-.207.066-.208.065-.207.064-.209.062-.21.06-.209.06-.21.059-.21.057-.212.056-.21.054-.213.053-.213.052-.213.05-.214.05-.214.047-.214.047-.216.044-.215.044-.216.042-.216.041-.217.04-.218.038-.218.037-.218.035-.219.034-.22.033-.219.031-.22.03-.22.028-.222.027-.222.026-.221.024-.223.022-.223.022-.223.02-.223.018-.224.017-.224.015-.225.014-.226.013-.226.011-.225.01-.227.008-.227.006-.227.006-.228.004-.227.002-.229v-.401l-.001-.172-.002-.172-.003-.172-.004-.172-.005-.17-.005-.172-.006-.17-.008-.172-.007-.17-.01-.17-.01-.17-.01-.17-.011-.17-.012-.169-.013-.169-.014-.169-.015-.168-.015-.169-.017-.168-.016-.168-.018-.168-.019-.167-.02-.167-.02-.167-.021-.167-.022-.167-.022-.165-.024-.166-.024-.166-.026-.166-.025-.165-.027-.165-.028-.165-.028-.164-.029-.164-.03-.164-.03-.164-.032-.163-.031-.163-.034-.163-.033-.162-.035-.163-.035-.162-.036-.161-.037-.162-.038-.161-.038-.162-.038-.16-.04-.16-.04-.16-.043-.16-.041-.16-.043-.159-.044-.159-.044-.159-.045-.158-.046-.158-.047-.158-.047-.157-.048-.157-.048-.157-.05-.156-.05-.157-.051-.156-.052-.155-.052-.156-.054-.155-.054-.154-.054-.154-.056-.154-.055-.155-.057-.153-.057-.153-.059-.153-.058-.152-.06-.152-.06-.152-.062-.152-.06-.15-.063-.151-.063-.151-.064-.15-.065-.15-.065-.15-.066-.148-.066-.15-.068-.148-.067-.148-.07-.147-.068-.147-.07-.148-.071-.146-.071-.147-.072-.145-.073-.146-.074-.146-.074-.145-.075-.144-.074-.144-.076-.143-.078-.144-.077-.143-.078-.143-.078-.142-.08-.142-.08-.141-.08-.142-.081-.14-.083-.14-.082-.14-.083-.14-.084-.14-.085-.138-.085-.138-.086-.138-.086-.138-.087-.137-.088-.137-.088-.136-.089-.136-.09-.135-.09-.136-.09-.134-.092-.135-.092-.134-.093-.133-.093-.133-.094-.133-.094-.132-.096-.131-.096-.132-.096-.131-.097-.13-.097-.13-.098-.13-.1-.13-.099-.128-.1-.129-.1-.127-.1-.127-.103-.128-.102-.126-.103-.126-.103-.126-.104-.125-.105-.124-.105-.125-.106-.124-.106-.123-.107-.123-.108-.122-.108-.122-.108-.121-.11-.121-.11-.12-.11-.12-.11-.12-.112-.12-.111-.118-.113-.118-.113-.118-.114-.117-.114-.116-.115-.116-.115-.116-.116-.115-.116-.115-.117-.114-.117-.113-.118-.113-.118-.113-.12-.112-.119-.112-.12-.11-.12-.111-.121-.11-.122-.11-.122-.109-.123-.108-.123-.108-.124-.108-.124-.107-.125-.106-.124-.106-.127-.105-.126-.105-.126-.104-.127-.104-.128-.103-.128-.102-.129-.103-.129-.101-.13-.1-.13-.102-.13-.099-.132-.1-.13-.098-.133-.099-.133-.097-.132-.097-.133-.096-.134-.096-.135-.096-.135-.094-.135-.095-.136-.093-.136-.093-.137-.093-.137-.092-.138-.09-.138-.092-.138-.09-.14-.09-.139-.089-.14-.088-.14-.088-.14-.087-.141-.086-.142-.086-.142-.085-.142-.086-.143-.083-.143-.084-.144-.083-.145-.082-.144-.082-.145-.081-.146-.08-.145-.08-.146-.08-.147-.079-.147-.078-.148-.076-.148-.077-.148-.077-.149-.075-.149-.075-.15-.074-.15-.074-.15-.073-.15-.072-.151-.071-.152-.072-.151-.07-.153-.07-.152-.068-.153-.069-.154-.068-.154-.067-.154-.066-.154-.066-.155-.065-.155-.064-.156-.064-2.329-.942.154-2.556.014-.228.03-.441.028-.43.027-.423.011-.203.011-.202.01-.2.008-.196.006-.194.006-.192.002-.189.001-.191v-.353l-.004-.355-.006-.356-.008-.354-.01-.355-.014-.353-.015-.353-.017-.352-.02-.352-.021-.351-.024-.35-.027-.35-.029-.35-.03-.348-.034-.348-.035-.347-.038-.347-.04-.347-.042-.345-.044-.345-.046-.344-.049-.343-.05-.343-.054-.342-.055-.341-.057-.34-.06-.34-.061-.34-.064-.338-.066-.338-.068-.337-.07-.336-.072-.335-.075-.335-.076-.334-.079-.333-.08-.333-.083-.331-.085-.331-.087-.33-.089-.33-.091-.328-.093-.328-.095-.327-.097-.326-.1-.325-.1-.325-.103-.323-.106-.323-.107-.322-.109-.32-.11-.321-.114-.32-.115-.318-.117-.317-.12-.317-.12-.316-.123-.315-.125-.314-.127-.313-.128-.312-.131-.311-.132-.31-.135-.31-.136-.308-.138-.308-.14-.306-.142-.306-.144-.304-.146-.304-.147-.302-.15-.302-.15-.3-.154-.3-.155-.298-.157-.298-.158-.297-.16-.295-.163-.294-.164-.294-.166-.292-.167-.291-.17-.29-.17-.29-.173-.287-.175-.288-.176-.285-.178-.285-.18-.284-.18-.282-.184-.282-.186-.28-.186-.28-.188-.277-.19-.277-.192-.276-.194-.274-.195-.274-.196-.272-.199-.27-.2-.27-.201-.27-.204-.266-.205-.267-.206-.265-.208-.264-.21-.262-.212-.261-.213-.26-.215-.259-.216-.258-.217-.256-.22-.255-.22-.253-.223-.253-.224-.251-.225-.25-.228-.248-.228-.247-.23-.246-.232-.245-.233-.243-.235-.242-.236-.24-.237-.239-.24-.238-.24-.237-.242-.234-.243-.234-.245-.232-.247-.23-.248-.23-.249-.229-.25-.226-.252-.225-.254-.224-.255-.222-.256-.22-.258-.22-.259-.218-.26-.216-.262-.215-.264-.213-.264-.212-.265-.211-.268-.209-.268-.207-.27-.206-.271-.204-.273-.203-.273-.201-.275-.2-.276-.198-.278-.197-.279-.195-.28-.193-.281-.192-.283-.19-.284-.19-.285-.187-.286-.185-.288-.184-.289-.182-.29-.18-.29-.18-.293-.177-.294-.176-.295-.174-.295-.172-.298-.17-.297-.17-.3-.168-.3-.165-.302-.164-.303-.162-.304-.16-.305-.16-.306-.156-.307-.156-.308-.153-.31-.152-.31-.15-.312-.149-.313-.146-.313-.145-.315-.142-.316-.142-.317-.14-.318-.136-.319-.136-.32-.134-.32-.132-.322-.131-.324-.128-.323-.127-.325-.125-.326-.123-.327-.12-.328-.12-.328-.117-.33-.115-.331-.114-.332-.111-.332-.11-.334-.108-.334-.106-.335-.104-.336-.102-.337-.1-.338-.098-.34-.096-.339-.095-.34-.092-.342-.09-.342-.088-.343-.087-.344-.084-.345-.082-.346-.08-.346-.079-.348-.076-.347-.074-.349-.073-.35-.07-.35-.068-.351-.066-.353-.064-.352-.062-.354-.06-.354-.057-.355-.056-.356-.053-.356-.052-.357-.05-.359-.047-.358-.044-.36-.044-.36-.04-.36-.04-.362-.036-.362-.034-.363-.032-.363-.03-.364-.028-.365-.026-.366-.023-.366-.022-.366-.019-.368-.017-.368-.014-.368-.013-.37-.01-.37-.007-.37-.006-.371-.004h-.64zM176.31 184.076c0 1.983-.244 3.772-.731 5.365-.488 1.593-1.216 2.95-2.183 4.072-.967 1.122-2.174 1.983-3.62 2.585-1.448.601-3.13.902-5.049.902-.878 0-1.74-.053-2.584-.159a23.185 23.185 0 0 1-2.658-.5l.341-3.9c.033-.359.167-.647.403-.867.235-.219.58-.329 1.036-.329.276 0 .638.057 1.085.171.447.114 1.012.17 1.694.17.927 0 1.748-.133 2.464-.402a4.166 4.166 0 0 0 1.792-1.28c.48-.586.841-1.345 1.085-2.28.244-.935.365-2.069.365-3.402V161.35h6.56v22.726zm26.018-16.313c-.179.358-.386.61-.622.756-.236.146-.516.22-.841.22-.325 0-.69-.126-1.097-.379a37.763 37.763 0 0 0-1.439-.84c-.553-.31-1.198-.59-1.938-.842s-1.614-.378-2.622-.378c-.91 0-1.703.11-2.377.33-.675.218-1.244.523-1.707.913-.463.39-.809.858-1.036 1.402a4.604 4.604 0 0 0-.342 1.793c0 .83.232 1.52.695 2.073.463.552 1.077 1.024 1.841 1.414.764.39 1.634.74 2.61 1.049.974.309 1.97.638 2.986.987 1.017.35 2.012.756 2.988 1.219a10.367 10.367 0 0 1 2.608 1.756c.764.707 1.378 1.573 1.842 2.597.463 1.024.694 2.267.694 3.73 0 1.594-.271 3.085-.816 4.475a10.322 10.322 0 0 1-2.39 3.633c-1.049 1.033-2.329 1.846-3.84 2.439-1.512.593-3.244.89-5.195.89-1.121 0-2.227-.11-3.316-.33a17.47 17.47 0 0 1-3.133-.938c-1-.407-1.934-.894-2.804-1.463a13.785 13.785 0 0 1-2.329-1.902l1.902-3.145c.179-.229.394-.42.646-.574.252-.154.532-.231.841-.231.407 0 .846.166 1.317.5.471.333 1.028.703 1.67 1.109.643.406 1.399.776 2.269 1.11.869.333 1.913.5 3.132.5 1.87 0 3.317-.444 4.34-1.33 1.025-.885 1.537-2.157 1.537-3.815 0-.928-.231-1.683-.695-2.269-.463-.585-1.076-1.076-1.84-1.475a13.771 13.771 0 0 0-2.61-1.012 86.498 86.498 0 0 1-2.975-.902 25.77 25.77 0 0 1-2.975-1.17 9.652 9.652 0 0 1-2.609-1.78c-.764-.732-1.377-1.646-1.84-2.744-.464-1.097-.696-2.45-.696-4.06 0-1.284.256-2.535.768-3.755a9.609 9.609 0 0 1 2.244-3.243c.984-.943 2.19-1.699 3.621-2.268 1.43-.57 3.064-.853 4.9-.853 2.082 0 4 .325 5.756.975 1.755.65 3.25 1.56 4.486 2.731l-1.609 3.097zm29.505-6.413v5.218h-15.63v10.437h13.192v5.243h-13.192v14.362h-6.608v-35.26h22.238zm11.217 10.241v25.019h-6.023V171.59h6.023zm.903-7.29c0 .52-.106 1.007-.318 1.463a4.024 4.024 0 0 1-.84 1.194 4.02 4.02 0 0 1-1.232.817 3.773 3.773 0 0 1-1.512.305 3.63 3.63 0 0 1-1.475-.305 3.897 3.897 0 0 1-1.207-.817 3.942 3.942 0 0 1-.817-1.194 3.545 3.545 0 0 1-.305-1.463c0-.537.101-1.04.305-1.512.203-.472.475-.878.817-1.22a3.899 3.899 0 0 1 1.207-.817 3.64 3.64 0 0 1 1.475-.304c.536 0 1.04.101 1.512.304.471.204.882.476 1.231.818.35.341.63.747.841 1.219.212.471.318.975.318 1.512zm23.506 32.309c-.78 0-1.293-.366-1.536-1.097l-.488-2.415a15.016 15.016 0 0 1-1.634 1.586c-.569.471-1.182.877-1.84 1.219a9.578 9.578 0 0 1-2.122.792c-.756.187-1.573.28-2.451.28-1.366 0-2.617-.284-3.755-.853s-2.117-1.394-2.938-2.475c-.821-1.081-1.455-2.418-1.902-4.011-.447-1.593-.671-3.414-.671-5.462 0-1.854.252-3.577.756-5.17s1.227-2.975 2.17-4.145a10.132 10.132 0 0 1 3.39-2.744c1.317-.658 2.796-.987 4.438-.987 1.398 0 2.592.223 3.584.67a9.384 9.384 0 0 1 2.658 1.793v-13.217h6.023v36.236h-3.682zm-8.023-4.414c1.252 0 2.317-.26 3.195-.78.878-.52 1.707-1.26 2.487-2.22V177.98c-.683-.829-1.426-1.414-2.23-1.756a6.582 6.582 0 0 0-2.598-.511c-.91 0-1.735.17-2.475.511a4.844 4.844 0 0 0-1.878 1.549c-.512.69-.906 1.569-1.182 2.633-.277 1.065-.415 2.32-.415 3.768 0 1.463.118 2.702.354 3.718.235 1.016.573 1.845 1.012 2.488.439.641.975 1.105 1.61 1.39.633.284 1.34.426 2.12.426zm35.821 4.414c-.78 0-1.292-.366-1.536-1.097l-.488-2.415a15.016 15.016 0 0 1-1.633 1.586c-.57.471-1.183.877-1.841 1.219a9.578 9.578 0 0 1-2.122.792c-.756.187-1.573.28-2.45.28-1.366 0-2.618-.284-3.756-.853s-2.117-1.394-2.938-2.475c-.821-1.081-1.455-2.418-1.902-4.011-.447-1.593-.67-3.414-.67-5.462 0-1.854.251-3.577.755-5.17s1.227-2.975 2.17-4.145a10.132 10.132 0 0 1 3.39-2.744c1.317-.658 2.796-.987 4.438-.987 1.398 0 2.593.223 3.584.67a9.384 9.384 0 0 1 2.658 1.793v-13.217h6.023v36.236h-3.682zm-8.022-4.414c1.251 0 2.316-.26 3.194-.78.878-.52 1.707-1.26 2.487-2.22V177.98c-.682-.829-1.426-1.414-2.23-1.756a6.582 6.582 0 0 0-2.598-.511c-.91 0-1.735.17-2.475.511a4.844 4.844 0 0 0-1.877 1.549c-.513.69-.907 1.569-1.183 2.633-.277 1.065-.414 2.32-.414 3.768 0 1.463.117 2.702.353 3.718s.573 1.845 1.012 2.488c.439.641.975 1.105 1.61 1.39.633.284 1.34.426 2.12.426zm24.628-31.822v36.236h-6.023v-36.236h6.023zm17.142 10.827c1.577 0 3.028.252 4.353.756a9.545 9.545 0 0 1 3.426 2.207c.959.967 1.707 2.154 2.243 3.56.536 1.406.805 3.011.805 4.816 0 .455-.02.833-.061 1.134-.04.3-.114.536-.22.707a.89.89 0 0 1-.426.366c-.18.073-.407.11-.683.11h-15.46c.179 2.568.87 4.454 2.073 5.657 1.203 1.203 2.796 1.804 4.78 1.804.975 0 1.816-.114 2.523-.341.708-.228 1.325-.48 1.853-.756.529-.277.992-.529 1.39-.756.398-.228.785-.342 1.159-.342.243 0 .455.05.634.147.178.097.333.235.463.415l1.755 2.194a10.028 10.028 0 0 1-2.243 1.963c-.83.528-1.695.951-2.597 1.268-.902.317-1.82.54-2.755.67-.935.13-1.841.196-2.719.196-1.74 0-3.357-.289-4.853-.866a10.862 10.862 0 0 1-3.901-2.56c-1.106-1.13-1.975-2.529-2.61-4.194-.633-1.667-.95-3.597-.95-5.792 0-1.707.276-3.312.829-4.816.552-1.503 1.345-2.812 2.378-3.926 1.032-1.113 2.291-1.995 3.779-2.645 1.488-.65 3.166-.976 5.035-.976zm.122 4.317c-1.756 0-3.129.495-4.12 1.487-.992.991-1.626 2.397-1.903 4.218h11.315c0-.78-.106-1.516-.318-2.206a5.088 5.088 0 0 0-.975-1.817 4.62 4.62 0 0 0-1.658-1.232c-.667-.3-1.447-.45-2.341-.45z"/></g></svg>
