<?xml version="1.0" standalone="no"?>
<!DOCTYPE svg PUBLIC "-//W3C//DTD SVG 1.1//EN" "http://www.w3.org/Graphics/SVG/1.1/DTD/svg11.dtd">
<svg width="100%" height="100%" viewBox="0 0 500 200" version="1.1" xmlns="http://www.w3.org/2000/svg" xmlns:xlink="http://www.w3.org/1999/xlink" xml:space="preserve" style="fill-rule:evenodd;clip-rule:evenodd;stroke-linejoin:round;stroke-miterlimit:1.41421;">
    <g transform="matrix(0.404906,0,0,0.404906,148.978,-1.23817)">
        <path d="M199.9,12.8L367,136.5C387.8,151.9 390,182.1 371.8,200.4L245.7,227L0.5,241.8L127.6,27.4C142.6,2.1 176.2,-4.7 199.9,12.8L199.9,12.8Z" style="fill:rgb(37,117,44);fill-rule:nonzero;"/>
        <path d="M0.8,242.1L245.4,226.7L375.3,196.3C389.6,177.9 386.4,150.7 367,136.4L232.8,37.1L0.8,242.1L0.8,242.1Z" style="fill:rgb(28,96,33);fill-rule:nonzero;"/>
        <path d="M486.6,265L254.6,497L0,242.3L305.9,16.2C332,-3.2 369.1,4.3 385.7,32.3L493.1,213.6C502.9,230.2 500.3,251.4 486.6,265Z" style="fill:url(#_Linear1);fill-rule:nonzero;"/>
    </g>
    <defs>
        <linearGradient id="_Linear1" x1="0" y1="0" x2="1" y2="0" gradientUnits="userSpaceOnUse" gradientTransform="matrix(216.84,-309.263,309.263,216.84,142.566,397.91)"><stop offset="0%" style="stop-color:rgb(29,128,66);stop-opacity:1"/><stop offset="100%" style="stop-color:rgb(46,143,41);stop-opacity:1"/></linearGradient>
    </defs>
</svg>
