<?xml version="1.0" encoding="utf-8"?>
<!-- Generator: Adobe Illustrator 16.0.0, SVG Export Plug-In . SVG Version: 6.00 Build 0)  -->
<!DOCTYPE svg PUBLIC "-//W3C//DTD SVG 1.1//EN" "http://www.w3.org/Graphics/SVG/1.1/DTD/svg11.dtd">
<svg version="1.1" id="Layer_2" xmlns="http://www.w3.org/2000/svg" xmlns:xlink="http://www.w3.org/1999/xlink" x="0px" y="0px"
	 width="1000px" height="700px" viewBox="0 0 1000 700" enable-background="new 0 0 1000 700" xml:space="preserve">
<path fill="#40B97B" d="M501.771,37.575l-176.524,101.9v213.496l176.524,101.893l176.478-101.893v-213.5l-176.478-101.9V37.575z
	 M607.648,312.212l-105.878,61.137l-105.922-61.133v-131.98l105.922,61.141l105.878-61.141v131.98V312.212z M313.674,586.692h25.682
	v-23.227c0-16.127-8.168-24.293-24.289-24.293h-14.135c-16.128,0-24.292,8.166-24.292,24.293v65.429
	c0,16.131,8.163,24.291,24.292,24.291h14.334c16.119,0,24.279-8.16,24.279-24.287v-26.675h-25.678v23.501
	c0,2.981-1.39,4.382-4.379,4.382H307.3c-2.993,0-4.378-1.4-4.378-4.382V566.65c0-2.985,1.385-4.381,4.378-4.381h1.994
	c2.982,0,4.38,1.396,4.38,4.381V586.692L313.674,586.692z M382.558,580.319h25.284v-16.854c0-16.127-8.164-24.299-24.288-24.299
	h-12.146c-16.127,0-24.292,8.172-24.292,24.299v15.655c0,10.158,3.784,14.937,11.948,20.115l20.306,12.539
	c2.787,1.795,3.783,3.184,3.783,6.372v8.363c0,2.989-1.39,4.378-4.376,4.378h-2.191c-2.989,0-4.379-1.389-4.379-4.378v-15.13
	h-25.289v17.514c0,16.131,8.16,24.291,24.287,24.291h12.543c16.129,0,24.288-8.16,24.288-24.287v-16.122
	c0-10.156-3.78-14.933-11.944-20.109l-20.308-12.544c-2.792-1.79-3.785-3.185-3.785-6.373v-7.9c0-2.986,1.394-4.376,4.38-4.376
	h1.791c2.985,0,4.379,1.39,4.379,4.376v14.47H382.558z M451.041,580.319h25.285l-0.125-16.854c0-16.127-8.164-24.299-24.292-24.299
	h-12.145c-16.122,0-24.28,8.172-24.28,24.299l0.129,15.655c0,10.158,3.784,14.937,11.943,20.115l20.309,12.539
	c2.788,1.795,3.784,3.184,3.784,6.372v8.363c0,2.989-1.393,4.378-4.378,4.378h-2.188c-2.993,0-4.381-1.389-4.381-4.378v-15.13
	h-25.286v17.514c0,16.131,8.163,24.291,24.286,24.291h12.544c16.127,0,24.29-8.16,24.29-24.287v-16.122
	c0-10.156-3.782-14.933-11.949-20.109l-20.311-12.544c-2.786-1.79-3.782-3.185-3.782-6.373l-0.13-7.9
	c0-2.986,1.389-4.376,4.379-4.376h1.791c2.986,0,4.375,1.39,4.375,4.376L451.041,580.319L451.041,580.319z"/>
<path fill="#ACBAB3" d="M487.401,653.321h15.839v-93.526c5.628-3.947,10.209-5.624,15.215-5.624c5.42,0,8.127,2.72,8.127,8.55
	v90.601h15.833v-93.937c0-12.712-6.041-20.212-19.163-20.212c-9.378,0-15.419,4.168-20.004,8.553v-8.551h-15.837v114.146H487.401z
	 M549.093,633.448c0,12.507,5.834,19.792,18.545,19.792c9.171,0,15.007-4.165,19.381-8.339v8.42h15.834v-88.73
	c0-16.865-8.54-25.416-25.421-25.416h-1.664c-16.881,0-25.427,8.551-25.427,25.416v12.381h15.423v-12.995
	c0-6.667,3.333-10.206,10.008-10.206h1.244c6.67,0,10.007,3.539,10.007,10.206v17.797l-21.259,7.299
	c-12.085,4.166-16.675,9.784-16.675,23.745v20.635L549.093,633.448z M572.645,638.243c-5.007,0-7.711-2.696-7.711-8.115v-17.096
	c0-6.464,1.875-9.372,7.711-11.668l14.378-5.005v36.672c-5.211,3.541-9.589,5.22-14.378,5.22V638.243z M609.615,653.321h15.834
	v-93.526c5.632-3.947,10.214-5.624,15.207-5.624c5.438,0,8.141,2.72,8.141,8.55v90.601h15.84v-93.937
	c0-12.712-6.045-20.212-19.17-20.212c-9.384,0-15.426,4.168-20.01,8.553v-8.551h-15.834v114.146H609.615z M701.015,553.972
	c6.66,0,10.008,3.334,10.008,10.003v64.469c0,6.666-3.344,10.011-10.008,10.011h-3.759c-6.664,0-9.997-3.341-9.997-10.011v-64.469
	c0-6.669,3.333-10.003,9.997-10.003h3.751H701.015z M701.42,653.246c16.885,0,25.429-8.54,25.429-25.415v-63.24
	c0-16.865-8.544-25.416-25.429-25.416h-4.574c-16.887,0-25.422,8.551-25.422,25.416v63.232c0,16.883,8.538,25.415,25.415,25.415
	h4.581V653.246z"/>
</svg>
