<svg xmlns="http://www.w3.org/2000/svg" width="146.672" height="29.194"><path fill="#22C37B" d="m134.325 0-12.35 7.13v14.936l12.35 7.13 12.347-7.13V7.13L134.325 0zm7.407 19.214-7.407 4.277-7.41-4.276V9.98l7.41 4.277 7.407-4.277v9.234zM9.472 12.153h6.568v-5.94C16.04 2.088 13.952 0 9.828 0H6.213C2.088 0 0 2.088 0 6.213v16.735c0 4.125 2.088 6.212 6.213 6.212H9.88c4.123 0 6.21-2.087 6.21-6.212v-6.823H9.523v6.01c0 .763-.356 1.12-1.12 1.12h-.56c-.764 0-1.12-.357-1.12-1.12V7.026c0-.764.356-1.12 1.12-1.12h.51c.764 0 1.12.356 1.12 1.12v5.126zm17.618-1.63h6.467v-4.31C33.557 2.088 31.47 0 27.345 0H24.24c-4.125 0-6.213 2.088-6.213 6.213v4.005c0 2.598.967 3.82 3.055 5.144l5.194 3.208c.713.458.968.814.968 1.63v2.138c0 .765-.356 1.12-1.12 1.12h-.56c-.765 0-1.12-.355-1.12-1.12v-3.87h-6.468v4.48c0 4.126 2.087 6.213 6.212 6.213h3.208c4.125 0 6.212-2.086 6.212-6.21v-4.125c0-2.598-.967-3.82-3.055-5.144l-5.194-3.207c-.714-.458-.968-.814-.968-1.63v-2.02c0-.764.356-1.12 1.12-1.12h.458c.764 0 1.12.356 1.12 1.12v3.7zm17.516 0h6.467l-.033-4.31C51.04 2.088 48.952 0 44.827 0H41.72c-4.123 0-6.21 2.088-6.21 6.213l.033 4.005c0 2.598.968 3.82 3.055 5.144l5.194 3.208c.713.458.968.814.968 1.63v2.138c0 .765-.356 1.12-1.12 1.12h-.56c-.765 0-1.12-.355-1.12-1.12v-3.87h-6.47v4.48c0 4.126 2.088 6.213 6.212 6.213h3.208c4.125 0 6.213-2.086 6.213-6.21v-4.125c0-2.598-.968-3.82-3.056-5.144l-5.195-3.207c-.713-.458-.967-.814-.967-1.63l-.034-2.02c0-.764.356-1.12 1.12-1.12h.458c.764 0 1.12.356 1.12 1.12l.034 3.7z"/><path fill="#ABBAB3" d="M53.906 29.194h4.05V5.274c1.44-1.01 2.612-1.438 3.892-1.438 1.386 0 2.078.696 2.078 2.187v23.172h4.05V5.17c0-3.252-1.545-5.17-4.902-5.17-2.398 0-3.943 1.066-5.116 2.187V0h-4.05v29.194zm15.779-5.082c0 3.198 1.492 5.062 4.743 5.062 2.346 0 3.838-1.065 4.957-2.132v2.152h4.05V6.5c0-4.313-2.185-6.5-6.502-6.5h-.426c-4.317 0-6.503 2.187-6.503 6.5v3.17h3.944V6.342c0-1.705.853-2.61 2.56-2.61h.318c1.706 0 2.56.905 2.56 2.61v4.552l-5.438 1.867c-3.09 1.067-4.264 2.503-4.264 6.074v5.278zm6.022 1.226c-1.28 0-1.972-.692-1.972-2.077v-4.37c0-1.654.48-2.398 1.972-2.985l3.678-1.28v9.38c-1.333.905-2.452 1.333-3.678 1.333zm9.456 3.856h4.05V5.274c1.44-1.01 2.612-1.438 3.89-1.438 1.39 0 2.082.696 2.082 2.187v23.172h4.05V5.17c0-3.252-1.545-5.17-4.902-5.17-2.4 0-3.945 1.066-5.118 2.187V0h-4.05v29.194zM108.54 3.785c1.703 0 2.56.852 2.56 2.557v16.49c0 1.705-.856 2.56-2.56 2.56h-.962c-1.704 0-2.556-.854-2.556-2.56V6.343c0-1.705.852-2.557 2.556-2.557h.96zm.105 25.39c4.318 0 6.504-2.184 6.504-6.5V6.5c0-4.313-2.187-6.5-6.505-6.5h-1.17c-4.32 0-6.502 2.187-6.502 6.5v16.174c0 4.317 2.183 6.5 6.5 6.5h1.172z"/></svg>