<svg data-name="Layer 1" xmlns="http://www.w3.org/2000/svg" width="970" height="796"><circle cx="917" cy="200" r="53" fill="#ccc" opacity=".3"/><circle cx="917" cy="200" r="30" fill="#40b97b"/><circle cx="882" cy="53" r="53" fill="#ccc" opacity=".3"/><circle cx="882" cy="53" r="30" fill="#40b97b"/><circle cx="53" cy="253" r="53" fill="#ccc" opacity=".3"/><circle cx="53" cy="253" r="30" fill="#40b97b"/><circle cx="100" cy="665" r="53" fill="#ccc" opacity=".3"/><circle cx="100" cy="665" r="30" fill="#40b97b"/><circle cx="172" cy="100" r="53" fill="#ccc" opacity=".3"/><circle cx="172" cy="100" r="30" fill="#40b97b"/><path d="M868 431c0 178.34-127.91 326.81-297 358.67-.66.13-1.33.25-2 .37q-15.765 2.895-32 4.39c-.67.07-1.33.13-2 .18q-15.81 1.38-32 1.39c-.67 0-1.33 0-2-.01q-16.17-.075-32-1.56c-.67-.05-1.33-.12-2-.19q-16.215-1.575-32-4.57c-.67-.12-1.34-.25-2-.38C264.9 756.64 138 608.64 138 431c0-201.58 163.42-365 365-365s365 163.42 365 365Z" fill="#3f3d56"/><path fill="#40b97b" d="M570 274.5h2V571h-2zM570 147.402h2v87.472h-2zM433 138.275h2V571h-2zM467 100h2v97.457h-2zM467 244h2v296.638h-2zM469 586.75v207.68c-.67-.05-1.33-.12-2-.19V586.75ZM501 68h2v275.347h-2zM503 381.52V796c-.67 0-1.33 0-2-.01V381.52ZM535 100h2v382h-2zM535 523h2v214.173h-2zM537 782.53v11.9c-.67.07-1.33.13-2 .18v-12.08ZM571 623v166.67c-.66.13-1.33.25-2 .37V623ZM435 623v166.67c-.67-.12-1.34-.25-2-.38V623ZM399 177h2v62.41h-2zM399 286.275h2V571h-2zM365 200h2v371h-2zM331 230h2v120.905h-2zM331 390.968h2V571h-2zM297 262h2v201.536h-2zM297 501h2v70h-2zM263 292h2v67.599h-2zM263 403.819h2V571h-2zM229 308h2v263h-2zM195 380h2v86.937h-2zM195 506.622h2V571h-2zM590.375 177h1.037v377h-1.037zM637 200h2v59.441h-2zM637 299.126h2V571h-2zM671 257h2v35h-2zM671 331.252h2V505.11h-2zM671 540.638h2V571h-2zM705 262h2v309h-2zM739 292h2v98.968h-2zM739 428.386h2V571h-2zM773 308h2v263h-2z"/><path d="M434 624a10 10 0 1 1 10-10 10.012 10.012 0 0 1-10 10Zm0-18a8 8 0 1 0 8 8 8.01 8.01 0 0 0-8-8ZM468 572a10 10 0 1 1 10-10 10.012 10.012 0 0 1-10 10Zm0-18a8 8 0 1 0 8 8 8.01 8.01 0 0 0-8-8ZM571 624a10 10 0 1 1 10-10 10.012 10.012 0 0 1-10 10Zm0-18a8 8 0 1 0 8 8 8.01 8.01 0 0 0-8-8ZM536 749a10 10 0 1 0 10 10 10.016 10.016 0 0 0-10-10Zm0 18a8 8 0 1 1 8-8 8.01 8.01 0 0 1-8 8ZM536 511a10 10 0 1 1 10-10 10.012 10.012 0 0 1-10 10Zm0-18a8 8 0 1 0 8 8 8.01 8.01 0 0 0-8-8ZM502 372a10 10 0 1 1 10-10 10.011 10.011 0 0 1-10 10ZM570 263a10 10 0 1 1 10-10 10.011 10.011 0 0 1-10 10Zm0-18a8 8 0 1 0 8 8 8.01 8.01 0 0 0-8-8ZM332 381a10 10 0 1 1 10-10 10.011 10.011 0 0 1-10 10Zm0-18a8 8 0 1 0 8 8 8.01 8.01 0 0 0-8-8ZM264 390a10 10 0 1 1 10-10 10.011 10.011 0 0 1-10 10Zm0-18a8 8 0 1 0 8 8 8.01 8.01 0 0 0-8-8ZM298 492a10 10 0 1 1 10-10 10.011 10.011 0 0 1-10 10ZM571 148a10 10 0 1 1 10-10 10.011 10.011 0 0 1-10 10Zm0-18a8 8 0 1 0 8 8 8.01 8.01 0 0 0-8-8ZM400 272a10 10 0 1 1 10-10 10.011 10.011 0 0 1-10 10Zm0-18a8 8 0 1 0 8 8 8.01 8.01 0 0 0-8-8ZM366 201a10 10 0 1 1 10-10 10.011 10.011 0 0 1-10 10Zm0-18a8 8 0 1 0 8 8 8.01 8.01 0 0 0-8-8ZM196 497a10 10 0 1 1 10-10 10.012 10.012 0 0 1-10 10Zm0-18a8 8 0 1 0 8 8 8.01 8.01 0 0 0-8-8ZM804 380h2v86.937h-2zM804 506.622h2V571h-2zM805 497a10 10 0 1 1 10-10 10.012 10.012 0 0 1-10 10Zm0-18a8 8 0 1 0 8 8 8.01 8.01 0 0 0-8-8ZM740 418a10 10 0 1 1 10-10 10.011 10.011 0 0 1-10 10Zm0-18a8 8 0 1 0 8 8 8.01 8.01 0 0 0-8-8ZM672 533a10 10 0 1 1 10-10 10.012 10.012 0 0 1-10 10Zm0-18a8 8 0 1 0 8 8 8.01 8.01 0 0 0-8-8ZM468 231a10 10 0 1 1 10-10 10.011 10.011 0 0 1-10 10ZM672 322a10 10 0 1 1 10-10 10.011 10.011 0 0 1-10 10Zm0-18a8 8 0 1 0 8 8 8.01 8.01 0 0 0-8-8ZM740 293a10 10 0 1 1 10-10 10.011 10.011 0 0 1-10 10ZM638 288a10 10 0 1 1 10-10 10.011 10.011 0 0 1-10 10Z" fill="#40b97b"/><path fill="#2f2e41" d="M918 288.017 738.983 285l.034-2L916 285.983V200h2v88.017zM638.923 278.386l-1.846-.772L731.334 52H882v2H732.666l-93.743 224.386zM503 363H52V254h2v107h449v2zM468 222H169V100h2v120h297v2zM299 666H100v-2h197V481h2v185z"/></svg>