<svg viewBox="0 0 500 200" xmlns="http://www.w3.org/2000/svg" fill-rule="evenodd" clip-rule="evenodd" stroke-linejoin="round" stroke-miterlimit="1.414"><path d="M357.66 143.396l-9.056-9.056v-4.529c0-10.34-8-18.792-18.113-19.547v-6.113h4.528a19.584 19.584 0 0 0 19.623-19.623V64.906a3.028 3.028 0 0 0-3.019-3.02 3.028 3.028 0 0 0-3.019 3.02 3.028 3.028 0 0 0-3.019-3.02 3.028 3.028 0 0 0-3.019 3.02 3.028 3.028 0 0 0-3.018-3.02 3.028 3.028 0 0 0-3.02 3.02V81.51A4.542 4.542 0 0 1 332 86.038h-1.509V64.906h-37.736c-4.15 0-7.547-3.396-7.547-7.547s3.396-7.548 7.547-7.548h37.736v-3.018c3.32 0 6.038-2.717 6.038-6.038s-2.717-6.038-6.038-6.038V24.151c0-10.566-5.962-16.604-16.604-16.604h-18.113c-10.642 0-16.604 6.038-16.604 16.604v10.566c-3.32 0-6.038 2.717-6.038 6.038 0 3.32 2.717 6.038 6.038 6.038v39.245h-1.51a4.542 4.542 0 0 1-4.528-4.528V64.906a3.028 3.028 0 0 0-3.018-3.02 3.028 3.028 0 0 0-3.02 3.02 3.028 3.028 0 0 0-3.018-3.02 3.028 3.028 0 0 0-3.019 3.02 3.028 3.028 0 0 0-3.019-3.02 3.028 3.028 0 0 0-3.019 3.02v19.622a19.584 19.584 0 0 0 19.623 19.623h4.528v13.585a4.542 4.542 0 0 1-4.528 4.528h-10.566v27.17l9.056-9.056h4.529c8.15 0 15.17-4.982 18.113-12.076h30.189a4.542 4.542 0 0 1 4.528 4.528v10.566h27.17zm-202.263-31.698l-13.585-7.547 13.585-7.547v15.094zm0-15.094l-13.585-7.547 13.585-7.547v15.094zm0-15.094l-13.585-7.548 13.585-7.547V81.51zm0-15.095l-13.585-7.547 13.585-7.547v15.094z" fill="#e2cbb5" fill-rule="nonzero"/><circle cx="212" cy="66" r="8" fill="#fff" transform="translate(135.774 -12.075) scale(.75472)"/><circle cx="236" cy="66" r="8" fill="#fff" transform="translate(135.774 -12.075) scale(.75472)"/><circle cx="212" cy="66" r="4" fill="#9fa628" transform="translate(135.774 -12.075) scale(.75472)"/><circle cx="236" cy="66" r="4" fill="#9fa628" transform="translate(135.774 -12.075) scale(.75472)"/><path d="M168.982 64.906c-4.151 0-7.548-3.396-7.548-7.547 0-4.15 3.397-7.547 7.548-7.547h37.736v-25.66c0-10.567-5.963-16.604-16.604-16.604H172c-10.642 0-16.604 6.037-16.604 16.604v93.585a4.542 4.542 0 0 1-4.529 4.528h-10.566v27.17l9.057-9.057h4.528c8.151 0 15.17-4.98 18.114-12.075h30.188a4.542 4.542 0 0 1 4.529 4.528v10.566h27.17l-9.057-9.056v-4.529c0-10.34-8-18.792-18.113-19.547v-3.094h36.226l-7.547-6.038 9.057-3.019-9.057-3.019 7.547-6.038h-36.226V83.02h36.226l-7.547-6.038 9.057-3.019-9.057-3.019 7.547-6.038h-73.962z" fill="#9fa628" fill-rule="nonzero"/><circle cx="48" cy="66" r="8" fill="#fff" transform="translate(135.774 -12.075) scale(.75472)"/><circle cx="72" cy="66" r="8" fill="#fff" transform="translate(135.774 -12.075) scale(.75472)"/><path d="M313.888 7.548h-18.113c-10.642 0-16.604 6.037-16.604 16.604v1.509l3.019-3.019 4.528 4.528 4.528-4.528 4.529 4.528 4.528-4.528 4.528 4.528 4.529-4.528 4.528 4.528 4.528-4.528 4.529 4.528 4.528-4.528 3.019 3.019v-1.51c0-10.566-5.963-16.603-16.604-16.603z" fill="#bf6c35" fill-rule="nonzero"/><circle cx="48" cy="66" r="4" fill="#bf6c35" transform="translate(135.774 -12.075) scale(.75472)"/><circle cx="72" cy="66" r="4" fill="#bf6c35" transform="translate(135.774 -12.075) scale(.75472)"/><path d="M295.775 45.284c-4.151 0-7.548-3.397-7.548-7.547 0-4.151 3.397-7.548 7.548-7.548 4.15 0 7.547 3.397 7.547 7.548 0 4.15-3.396 7.547-7.547 7.547zm0-12.076a4.542 4.542 0 0 0-4.529 4.529 4.542 4.542 0 0 0 4.529 4.528 4.542 4.542 0 0 0 4.528-4.528 4.542 4.542 0 0 0-4.528-4.529zm18.113 12.076c-4.151 0-7.547-3.397-7.547-7.547 0-4.151 3.396-7.548 7.547-7.548 4.15 0 7.547 3.397 7.547 7.548 0 4.15-3.396 7.547-7.547 7.547zm0-12.076a4.542 4.542 0 0 0-4.528 4.529 4.542 4.542 0 0 0 4.528 4.528 4.542 4.542 0 0 0 4.528-4.528 4.542 4.542 0 0 0-4.528-4.529zm47.396 111.699l-11.17-11.17v-3.925c0-10.49-7.849-19.471-18.113-20.905v-3.246h3.02c11.622 0 21.131-9.51 21.131-21.132V64.906a4.542 4.542 0 0 0-4.528-4.528c-1.132 0-2.189.453-3.019 1.132-.83-.755-1.887-1.132-3.019-1.132-1.132 0-2.189.453-3.019 1.132-.83-.755-1.887-1.132-3.019-1.132a4.542 4.542 0 0 0-4.528 4.528V81.51a3.028 3.028 0 0 1-3.019 3.02V63.396h-7.547v-.755c0-1.283-.981-2.264-2.264-2.264s-2.264.981-2.264 2.264v.755h-4.529v-.755c0-1.283-.98-2.264-2.264-2.264-1.283 0-2.264.981-2.264 2.264v.755h-4.528v-.755c0-1.283-.981-2.264-2.264-2.264s-2.265.981-2.265 2.264v.755h-4.528v-.755c0-1.283-.981-2.264-2.264-2.264s-2.264.981-2.264 2.264v.755c-3.321 0-6.038-2.717-6.038-6.038 0-3.32 2.717-6.038 6.038-6.038h4.528v.755c0 1.283.981 2.264 2.264 2.264s2.264-.98 2.264-2.264v-.755h4.529v.755c0 1.283.98 2.264 2.264 2.264 1.283 0 2.264-.98 2.264-2.264v-.755h4.528v.755c0 1.283.981 2.264 2.265 2.264 1.283 0 2.264-.98 2.264-2.264v-.755h4.528v.755c0 1.283.981 2.264 2.264 2.264s2.264-.98 2.264-2.264v-.755h3.02v-3.17c3.47-.679 6.037-3.773 6.037-7.396 0-3.622-2.566-6.717-6.038-7.396v-9.207c0-11.548-6.566-18.114-18.113-18.114h-18.113c-11.548 0-18.114 6.566-18.114 18.114v9.207c-3.471.68-6.037 3.774-6.037 7.396 0 3.623 2.566 6.717 6.037 7.397v36.377a3.028 3.028 0 0 1-3.019-3.019V64.906a4.542 4.542 0 0 0-4.528-4.528c-1.132 0-2.189.453-3.019 1.132-.83-.755-1.887-1.132-3.019-1.132-1.132 0-2.188.453-3.018 1.132-.83-.755-1.887-1.132-3.02-1.132a4.542 4.542 0 0 0-4.528 4.528V84.53c0 11.623 9.51 21.132 21.132 21.132h3.02v12.076a3.028 3.028 0 0 1-3.02 3.019h-12.075v32.302l11.17-11.17h3.924c8.227 0 15.623-4.68 19.095-12.076h29.207a3.028 3.028 0 0 1 3.02 3.02v12.075h32.301zm-29.283-57.359c3.321 0 6.038-2.717 6.038-6.038V64.906c0-.83.68-1.509 1.51-1.509s1.509.68 1.509 1.51.68 1.509 1.51 1.509 1.509-.68 1.509-1.51.679-1.509 1.51-1.509c.83 0 1.509.68 1.509 1.51s.679 1.509 1.509 1.509c.83 0 1.51-.68 1.51-1.51s.679-1.509 1.509-1.509c.83 0 1.51.68 1.51 1.51v19.622c0 9.962-8.152 18.113-18.114 18.113h-3.019V87.548zm0-51.095a4.52 4.52 0 0 1 3.02 4.302c0 2.038-1.284 3.623-3.02 4.302v-8.604zm-57.359 4.302c0-1.962 1.284-3.622 3.02-4.302v8.529c-1.736-.604-3.02-2.264-3.02-4.227zm51.321 86.038h-31.17l-.377.906c-2.792 6.793-9.358 11.17-16.755 11.17h-5.132l-6.943 6.943v-22.037h9.056c3.321 0 6.038-2.717 6.038-6.038v-15.095h-6.038c-9.962 0-18.113-8.15-18.113-18.113V64.906c0-.83.68-1.509 1.51-1.509s1.51.68 1.51 1.51.678 1.509 1.509 1.509c.83 0 1.509-.68 1.509-1.51s.68-1.509 1.51-1.509 1.509.68 1.509 1.51.68 1.509 1.51 1.509 1.509-.68 1.509-1.51.679-1.509 1.51-1.509c.83 0 1.509.68 1.509 1.51V81.51c0 3.321 2.717 6.038 6.037 6.038h3.02V24.152c0-9.736 5.358-15.095 15.094-15.095h18.113c9.736 0 15.094 5.359 15.094 15.095v24.15h-36.226c-4.981 0-9.057 4.076-9.057 9.057 0 4.981 4.076 9.057 9.057 9.057h36.226v45.208l1.359.075c9.434.755 16.755 8.68 16.755 18.113v5.132l6.943 6.944h-22.038v-9.057c0-3.32-2.717-6.038-6.038-6.038zm-153.962-81.51c-4.151 0-7.548-3.396-7.548-7.546 0-4.151 3.397-7.548 7.548-7.548 4.15 0 7.547 3.397 7.547 7.548 0 4.15-3.396 7.547-7.547 7.547zm0-12.075a4.542 4.542 0 0 0-4.529 4.529 4.542 4.542 0 0 0 4.529 4.528 4.542 4.542 0 0 0 4.528-4.528A4.542 4.542 0 0 0 172 33.208zm18.113 12.076c-4.151 0-7.547-3.397-7.547-7.547 0-4.151 3.396-7.548 7.547-7.548 4.15 0 7.547 3.397 7.547 7.548 0 4.15-3.396 7.547-7.547 7.547zm0-12.076a4.542 4.542 0 0 0-4.528 4.529 4.542 4.542 0 0 0 4.528 4.528 4.542 4.542 0 0 0 4.528-4.528 4.542 4.542 0 0 0-4.528-4.529zm48.377 61.359l8.755-7.019h-39.019v-3.019h39.02l-8.756-7.019 10.717-3.547-10.717-3.547 8.755-7.019h-40.528l-3.02-6.038-3.018 6.038h-3.019l-3.019-6.038-3.019 6.038h-3.019l-3.018-6.038-3.02 6.038h-3.018l-3.02-6.038-3.018 6.038h-3.019l-3.019-6.038-2.34 4.68a6.027 6.027 0 0 1-2.188-4.68c0-3.32 2.717-6.038 6.038-6.038L172 57.36l3.018-6.038h3.02l3.018 6.038 3.02-6.038h3.018l3.019 6.038 3.019-6.038h3.019l3.018 6.038 3.02-6.038h6.037v-27.17c0-5.056-1.283-9.207-3.698-12.226l4-4c1.208.755 2.642 1.132 4.302 1.132.83 0 1.51-.68 1.51-1.51s-.68-1.509-1.51-1.509c-2.868 0-4.528-1.66-4.528-4.528 0-.83-.68-1.51-1.51-1.51s-1.51.68-1.51 1.51c0 1.66.378 3.094 1.133 4.302l-4 4c-3.02-2.415-7.17-3.698-12.227-3.698h-18.188c-5.057 0-9.208 1.283-12.227 3.698l-4-4c.755-1.208 1.132-2.642 1.132-4.302 0-.83-.68-1.51-1.51-1.51s-1.509.68-1.509 1.51c0 2.868-1.66 4.528-4.528 4.528-.83 0-1.51.68-1.51 1.51s.68 1.51 1.51 1.51c1.66 0 3.094-.378 4.302-1.133l4 4c-2.415 3.019-3.698 7.17-3.698 12.227v26.264l-15.246 8.453 13.585 7.547-13.585 7.547 13.585 7.547-13.585 7.547 13.585 7.548-13.585 7.547 15.17 8.453v5.132a3.028 3.028 0 0 1-3.019 3.019h-12.075v32.302l11.17-11.17h3.924c8.227 0 15.623-4.68 19.095-12.076h29.207a3.028 3.028 0 0 1 3.02 3.02v12.075h32.301l-11.17-11.17v-3.925c0-10.49-7.849-19.471-18.113-20.905v-.227h39.02l-8.756-7.019 10.717-3.547-10.717-3.547zm-30.264-28.151h30.415l-6.34 5.057 7.397 2.49-7.396 2.49 6.34 5.057h-30.416V66.416zm-54.34-12.528v9.962l-8.98-4.981 8.98-4.981zm0 15.094v9.962l-8.98-4.98 8.98-4.982zm0 15.094v9.963l-8.98-4.982 8.98-4.98zm-8.98 20.076l8.98-4.981v9.962l-8.98-4.981zm12-80c0-9.736 5.358-15.095 15.094-15.095h18.113c9.736 0 15.094 5.359 15.094 15.095v24.15h-36.226c-4.981 0-9.057 4.076-9.057 9.057 0 4.981 4.076 9.057 9.057 9.057h36.226v24.15h33.434l-6.34 5.058 7.397 2.49-7.396 2.49 6.34 5.057h-33.435v5.963l1.359.075c9.434.755 16.755 8.68 16.755 18.113v5.132l6.943 6.944h-22.038v-9.057c0-3.32-2.717-6.038-6.038-6.038h-31.17l-.377.906c-2.792 6.793-9.358 11.17-16.755 11.17h-5.132l-6.943 6.943v-22.037h9.056c3.321 0 6.038-2.717 6.038-6.038V24.152zm19.622 138.868h6.038v36.227h-6.038V163.02zm22.641 36.227v-5.283h-9.056V163.02h-6.038v36.227h15.094zm-34.717 0c5.812 0 10.566-4.755 10.566-10.566V163.02h-6.037v26.415a4.542 4.542 0 0 1-4.529 4.529h-1.51V163.02h-6.037v36.227h7.547zm84.529-36.227c-5.811 0-10.566 4.755-10.566 10.566v25.66h6.038v-12.83h6.037v12.83h6.038V163.02h-7.547zm-4.528 18.113v-8.302a4.542 4.542 0 0 1 4.528-4.528h1.51v12.83h-6.038zm31.698-7.547c0-5.811-4.755-10.566-10.566-10.566h-7.547v36.227h6.037v-12.83h1.51a4.542 4.542 0 0 1 4.528 4.528v8.302h6.038v-7.548c0-3.396-1.66-6.188-4.151-7.924 2.566-1.736 4.15-4.528 4.15-7.925v-2.264zm-6.038 3.019a4.542 4.542 0 0 1-4.528 4.528h-1.51v-12.83h1.51a4.542 4.542 0 0 1 4.528 4.528v3.774zm42.264-13.585c-5.81 0-10.566 4.755-10.566 10.566v25.66h6.038v-12.075h6.038v12.076h6.038V163.02h-7.548zm-4.528 18.868v-9.057a4.542 4.542 0 0 1 4.528-4.528h1.51v13.585h-6.038zm-15.094-18.868H277.66v5.283h4.529v30.944h6.037v-30.944h4.529v-5.283zm1.51 0h6.037v36.227h-6.038V163.02zm-69.435 9.811a4.542 4.542 0 0 1 4.528-4.528h1.51v30.944h6.037V163.02h-7.547c-2.943 0-5.66 1.585-7.547 3.925-1.887-2.34-4.604-3.925-7.547-3.925h-7.547v36.227h6.037v-30.944h1.51a4.542 4.542 0 0 1 4.528 4.528v26.416h6.038V172.83zm96.604-9.811v36.227h6.038v-29.66c3.094 1.282 6.038 4.905 6.038 8.527v21.133h6.037V163.02h-6.037v4.226c-2.265-2.641-5.434-4.226-9.057-4.226h-3.019zm-182.642 0v25.66c0 5.812 4.755 10.567 10.566 10.567h6.038v-5.283h-6.038a4.542 4.542 0 0 1-4.528-4.529v-9.056h9.056v-5.283h-9.056v-6.793h10.566v-5.283h-16.604zm220.378 12.076v-3.02c0-6.792-3.245-9.81-9.057-9.81-5.81 0-9.056 4-9.056 9.81 0 11.321 12.075 11.397 12.075 18.114v.755c0 2.264-.754 3.773-3.019 3.773-2.264 0-3.018-1.51-3.018-3.773v-3.774h-6.038v3.019c0 6.868 3.245 9.811 9.056 9.811 5.812 0 9.057-4 9.057-9.811 0-11.245-12.075-11.32-12.075-18.113v-.755c0-2.264.754-3.774 3.018-3.774 2.265 0 3.02 1.51 3.02 3.774v3.774h6.037z" fill="#663f4c" fill-rule="nonzero"/></svg>
