<svg viewBox="0 0 500 200" xmlns="http://www.w3.org/2000/svg" fill-rule="evenodd" clip-rule="evenodd" stroke-linejoin="round" stroke-miterlimit="1.414"><g fill-rule="nonzero"><path d="M229.919 3.945l67.66 50.086c8.422 6.236 9.312 18.464 1.943 25.874l-51.059 10.77-99.283 5.993 51.464-86.812c6.074-10.244 19.678-12.997 29.275-5.911z" fill="#25752c"/><path d="M149.302 96.79l99.04-6.236 52.597-12.31c5.79-7.45 4.495-18.463-3.36-24.253L243.24 13.784 149.302 96.79z" fill="#1c6021"/><path d="M486.6 265l-232 232L0 242.3 305.9 16.2C332-3.2 369.1 4.3 385.7 32.3l107.4 181.3c9.8 16.6 7.2 37.8-6.5 51.4z" fill="url(#a)" transform="matrix(.4049 0 0 .4049 148.978 -1.238)"/></g><defs><linearGradient id="a" x2="1" gradientUnits="userSpaceOnUse" gradientTransform="rotate(-54.964 453.767 61.916) scale(377.708)"><stop offset="0%" stop-color="#1d8042"/><stop offset="100%" stop-color="#2e8f29"/></linearGradient></defs></svg>
