<svg xmlns="http://www.w3.org/2000/svg" width="24" height="24" viewBox="0 0 24 24"><path d="M24 4.557a9.83 9.83 0 0 1-2.828.775 4.932 4.932 0 0 0 2.165-2.724 9.864 9.864 0 0 1-3.127 1.195 4.916 4.916 0 0 0-3.594-1.555c-3.18 0-5.515 2.966-4.797 6.045A13.978 13.978 0 0 1 1.67 3.15a4.93 4.93 0 0 0 1.524 6.573 4.903 4.903 0 0 1-2.23-.616c-.053 2.28 1.582 4.415 3.95 4.89a4.935 4.935 0 0 1-2.224.084 4.928 4.928 0 0 0 4.6 3.42A9.9 9.9 0 0 1 0 19.54a13.94 13.94 0 0 0 7.548 2.212c9.142 0 14.307-7.72 13.995-14.646A10.025 10.025 0 0 0 24 4.556z"/></svg>
