<svg xmlns="http://www.w3.org/2000/svg" width="24" height="24" viewBox="0 0 24 24"><path d="M12 0C5.374 0 0 5.373 0 12c0 5.302 3.438 9.8 8.207 11.387.6.11.793-.26.793-.577v-2.234c-3.338.726-4.033-1.416-4.033-1.416-.546-1.387-1.333-1.756-1.333-1.756-1.09-.745.083-.73.083-.73 1.205.085 1.84 1.238 1.84 1.238 1.07 1.834 2.806 1.304 3.49.997.108-.776.42-1.306.763-1.605-2.665-.305-5.467-1.334-5.467-5.93 0-1.312.47-2.382 1.236-3.222-.125-.303-.536-1.524.116-3.176 0 0 1.008-.322 3.3 1.23A11.51 11.51 0 0 1 12 5.803c1.02.005 2.047.138 3.006.404 2.29-1.552 3.297-1.23 3.297-1.23.653 1.653.242 2.874.118 3.176.77.84 1.236 1.91 1.236 3.22 0 4.61-2.807 5.625-5.48 5.922.43.372.824 1.102.824 2.222v3.293c0 .32.192.694.8.576C20.567 21.796 24 17.3 24 12c0-6.627-5.373-12-12-12z"/></svg>
