<svg id="a7e92c1a-e25c-441e-bda8-8af90c7203b5" data-name="Layer 1" xmlns="http://www.w3.org/2000/svg" width="996.61127" height="804.00001" viewBox="0 0 996.61127 804.00001"><title>settings</title><path d="M568.9169,56.97925c-50.93658,13.2323-95.86584,48.55976-140.52362,94.90528a76.20054,76.20054,0,0,1-99.83508,115.0871c-52.45648,62.66448-109.734,128.91082-179.6413,183.663-177.9953,139.40814,188.04041,393.65546,420,393.65546S988.917,668.04456,988.917,450.63465,792.44938-1.09,568.9169,56.97925Z" transform="translate(-101.69436 -47.99999)" fill="#f2f2f2"/><ellipse cx="532.61127" cy="773.50001" rx="464" ry="30.5" fill="#3f3d56"/><ellipse cx="545.61127" cy="771.00001" rx="160" ry="17" opacity="0.1"/><path d="M1039.04565,787.50555c0,29.27147-17.399,39.49126-38.86526,39.49126-.49723,0-.99443-.00716-1.48807-.0179-.99444-.02147-1.98173-.06795-2.95469-.13591-19.3736-1.37-34.42248-12.11568-34.42248-39.33745,0-28.16613,35.99283-63.71182,38.70426-66.34815l.00358-.00358c.10375-.10373.1574-.15381.1574-.15381S1039.04565,758.23767,1039.04565,787.50555Z" transform="translate(-101.69436 -47.99999)" fill="#40b97b"/><path d="M998.76387,822.51827l14.21541-19.8601-14.2512,22.04212-.03576,2.27862c-.99444-.02147-1.98173-.06795-2.95469-.13591l1.531-29.28221-.01072-.22892.025-.03936.14665-2.76868L983.14265,772.428l14.32987,20.02108.03578.58665,1.1554-22.12442L986.43357,748.0787l12.38036,18.9515,1.20548-45.8728L1000.023,721v.15381l-.20031,36.17169,12.17648-14.34063-12.22657,17.4563-.32192,19.81,11.37161-19.01232-11.41812,21.92765-.17885,11.01392L1015.7265,767.717l-16.56558,30.30525Z" transform="translate(-101.69436 -47.99999)" fill="#3f3d56"/><circle cx="476.79322" cy="192.76422" r="47.76284" fill="#2f2e41"/><polygon points="586.73 614.807 612.259 717.744 637.787 713.626 612.259 595.866 586.73 614.807" fill="#a0616a"/><path d="M723.01135,759.15573s-14.53835,4.91525-12.62191,8.2221,1.91645,23.89429-4.67153,31.30576-23.05792,30.4694-4.11748,31.2929,37.88087-11.529,37.88087-11.529V797.0366l3.294,19.76393h3.294V794.56611s8.235-13.99946,3.294-22.23443-8.16167-15.41149-14.37455-14.70547S723.01135,759.15573,723.01135,759.15573Z" transform="translate(-101.69436 -47.99999)" fill="#2f2e41"/><polygon points="486.263 702.097 482.146 724.332 510.968 724.332 510.968 702.097 486.263 702.097" fill="#a0616a"/><path d="M590.4283,767.3907s-8.235-.8235-10.70547,10.70546-24.70491,27.99891-32.93989,30.4694-8.235,10.70546,2.47049,12.35246,37.88088,2.47049,44.46886-6.588a80.72283,80.72283,0,0,1,15.64644-15.64645l-4.11748,23.05793h7.41147s6.588-22.23443,13.176-29.6459-13.176-24.70492-16.46995-24.70492Z" transform="translate(-101.69436 -47.99999)" fill="#2f2e41"/><path d="M550.07693,413.28688s-5.76448,15.64645-15.64645,18.11694-83.17322,19.76394-83.17322,19.76394-64.23278,1.647-44.46885,15.64644,51.88033,0,51.88033,0,93.87868-11.529,101.29016-23.88142a166.46131,166.46131,0,0,0,12.35246-26.35191Z" transform="translate(-101.69436 -47.99999)" fill="#a0616a"/><path d="M581.36983,344.11311s-46.93935,76.58525-41.17486,78.23224,59.2918,18.94044,61.76229,12.35246,2.47049-37.05737,2.47049-37.05737Z" transform="translate(-101.69436 -47.99999)" fill="#2f2e41"/><path d="M581.36983,344.11311s-46.93935,76.58525-41.17486,78.23224,59.2918,18.94044,61.76229,12.35246,2.47049-37.05737,2.47049-37.05737Z" transform="translate(-101.69436 -47.99999)" opacity="0.1"/><path d="M703.24742,325.99618,809.47856,380.347s60.1153,15.64645,46.93935,27.99891-55.99782-10.70546-55.99782-10.70546L682.66,344.11311Z" transform="translate(-101.69436 -47.99999)" fill="#a0616a"/><path d="M567.37037,283.17432s20.58744,31.29289,18.94044,38.70437c0,0,1.647,4.941-.8235,8.235s-1.647,23.05792-1.647,23.05792l8.235,11.529,10.70547-35.41039,4.941-37.88087s-11.11721-15.2347-9.47022-22.64617S567.37037,283.17432,567.37037,283.17432Z" transform="translate(-101.69436 -47.99999)" fill="#a0616a"/><path d="M632.42666,461.04972s-46.11585,123.52459-46.11585,177.87541-17.29344,116.11311-4.11749,121.87759,79.87924,6.588,81.52623,0-8.235-274.22458-13.176-284.93S632.42666,461.04972,632.42666,461.04972Z" transform="translate(-101.69436 -47.99999)" fill="#2f2e41"/><path d="M632.42666,461.04972s-46.11585,123.52459-46.11585,177.87541-17.29344,116.11311-4.11749,121.87759,79.87924,6.588,81.52623,0-8.235-274.22458-13.176-284.93S632.42666,461.04972,632.42666,461.04972Z" transform="translate(-101.69436 -47.99999)" opacity="0.1"/><circle cx="476.38148" cy="209.64591" r="30.4694" fill="#a0616a"/><path d="M587.13431,349.8776l-2.20524-18.58441s-6.85323,9.52594-6.85323,16.93741-4.11749,33.76339,13.176,50.23333,20.58744,19.76394,21.41093,23.05793,4.941,3.294,4.941,3.294L641.48513,521.165s7.41147,256.10765,18.94043,259.40163,46.93935,0,49.40984-4.11748-4.11749-113.64262-4.11749-113.64262,18.11694,97.17267,24.70492,97.17267,10.70546-13.99945,9.05847-14.823-11.529-64.23278-15.64645-83.99672-2.47049-186.93387-2.47049-186.93387,13.17595-21.41093-32.11639-63.40929c0,0-28.82241-83.99672-30.4694-83.99672s-33.76339-45.29235-33.76339-45.29235-18.11694,0-21.41093,10.70547S587.13431,349.8776,587.13431,349.8776Z" transform="translate(-101.69436 -47.99999)" fill="#2f2e41"/><path d="M615.13321,288.1153l9.882-6.588s41.17486,24.70492,69.99727,26.35192,27.9989,18.11694,16.46994,29.6459S654.66108,388.582,653.01409,378.7,615.13321,288.1153,615.13321,288.1153Z" transform="translate(-101.69436 -47.99999)" fill="#2f2e41"/><ellipse cx="476.79322" cy="179.58826" rx="32.93989" ry="19.76393" fill="#2f2e41"/><circle cx="480.08721" cy="145.00138" r="19.76393" fill="#2f2e41"/><path d="M555.42966,182.29591a19.766,19.766,0,0,1,17.7052-19.65708,19.98219,19.98219,0,0,0-2.05875-.10686,19.76394,19.76394,0,0,0,0,39.52787,19.98219,19.98219,0,0,0,2.05875-.10686A19.766,19.766,0,0,1,555.42966,182.29591Z" transform="translate(-101.69436 -47.99999)" fill="#2f2e41"/><rect x="430.06591" y="424.58801" width="441.47946" height="257.824" transform="translate(-184.48419 67.60969) rotate(-9.54725)" fill="#3f3d56"/><path d="M785.61317,473.58139l-289.1327,48.097a5.94707,5.94707,0,1,1-1.95176-11.73292l289.13269-48.097a5.94708,5.94708,0,0,1,1.95177,11.73292Z" transform="translate(-101.69436 -47.99999)" fill="#40b97b" opacity="0.3"/><circle cx="604.16474" cy="432.81963" r="24.63788" fill="#40b97b"/><path d="M796.34787,538.11245l-289.1327,48.097a5.94707,5.94707,0,1,1-1.95176-11.73292l289.13269-48.097a5.94708,5.94708,0,0,1,1.95177,11.73292Z" transform="translate(-101.69436 -47.99999)" fill="#40b97b" opacity="0.3"/><circle cx="484.16118" cy="519.09892" r="24.63788" fill="#40b97b"/><path d="M807.08257,602.64352l-289.1327,48.097a5.94707,5.94707,0,1,1-1.95176-11.73292l289.13269-48.097a5.94708,5.94708,0,1,1,1.95177,11.73292Z" transform="translate(-101.69436 -47.99999)" fill="#40b97b" opacity="0.3"/><circle cx="584.56892" cy="568.71294" r="24.63788" fill="#40b97b"/><circle cx="275.36982" cy="160.20126" r="54.31516" fill="#ff6584"/></svg>